<svg width="133" height="133" viewBox="0 0 133 133" fill="none" xmlns="http://www.w3.org/2000/svg">
<path d="M133 101.718H0V101.785H133V101.718Z" fill="#E0E0E0"/>
<path d="M45.8397 103.325H43.052V103.392H45.8397V103.325Z" fill="#E0E0E0"/>
<path d="M124.007 105.07H113.915V105.137H124.007V105.07Z" fill="#E0E0E0"/>
<path d="M92.5679 103.357H84.4124V103.423H92.5679V103.357Z" fill="#E0E0E0"/>
<path d="M64.4969 104.873H50.3032V104.94H64.4969V104.873Z" fill="#E0E0E0"/>
<path d="M37.1522 104.453H32.2737V104.519H37.1522V104.453Z" fill="#E0E0E0"/>
<path d="M112.63 105.07H108.571V105.137H112.63V105.07Z" fill="#E0E0E0"/>
<path d="M30.723 104.421H17.2714V104.487H30.723V104.421Z" fill="#E0E0E0"/>
<path d="M63.042 89.8548H11.6801C11.2777 89.8541 10.8921 89.6938 10.6078 89.409C10.3235 89.1242 10.1639 88.7383 10.1639 88.3359V16.1356C10.1674 15.7355 10.3286 15.353 10.6125 15.0711C10.8964 14.7892 11.28 14.6307 11.6801 14.63H63.042C63.4448 14.63 63.8312 14.79 64.116 15.0749C64.4009 15.3597 64.5609 15.746 64.5609 16.1489V88.3359C64.5609 88.7388 64.4009 89.1251 64.116 89.4099C63.8312 89.6948 63.4448 89.8548 63.042 89.8548ZM11.6801 14.6832C11.2954 14.6839 10.9266 14.8372 10.6548 15.1095C10.383 15.3818 10.2304 15.7508 10.2304 16.1356V88.3359C10.2304 88.7207 10.383 89.0897 10.6548 89.362C10.9266 89.6343 11.2954 89.7876 11.6801 89.7883H63.042C63.427 89.7876 63.796 89.6344 64.0682 89.3621C64.3404 89.0899 64.4937 88.7209 64.4944 88.3359V16.1356C64.4937 15.7506 64.3404 15.3816 64.0682 15.1094C63.796 14.8371 63.427 14.6839 63.042 14.6832H11.6801Z" fill="#E0E0E0"/>
<path d="M120.58 89.8548H69.2158C68.8132 89.8541 68.4273 89.6939 68.1426 89.4092C67.8579 89.1245 67.6977 88.7386 67.697 88.3359V16.1356C67.7012 15.7353 67.863 15.3527 68.1473 15.0709C68.4316 14.7891 68.8155 14.6307 69.2158 14.63H120.58C120.98 14.6314 121.363 14.7902 121.646 15.072C121.93 15.3538 122.09 15.736 122.094 16.1356V88.3359C122.094 88.7379 121.935 89.1234 121.651 89.4081C121.367 89.6927 120.982 89.8534 120.58 89.8548ZM69.2158 14.6832C68.8309 14.6839 68.4619 14.8371 68.1897 15.1094C67.9174 15.3816 67.7642 15.7506 67.7635 16.1356V88.3359C67.7642 88.7209 67.9174 89.0899 68.1897 89.3621C68.4619 89.6344 68.8309 89.7876 69.2158 89.7883H120.58C120.965 89.7876 121.334 89.6344 121.607 89.3621C121.879 89.0899 122.032 88.7209 122.033 88.3359V16.1356C122.032 15.7506 121.879 15.3816 121.607 15.1094C121.334 14.8371 120.965 14.6839 120.58 14.6832H69.2158Z" fill="#E0E0E0"/>
<path d="M51.5161 31.4173H19.7132V101.75H51.5161V31.4173Z" fill="#E6E6E6"/>
<path d="M51.5162 31.4173H21.2215V101.75H51.5162V31.4173Z" fill="#F5F5F5"/>
<path d="M49.9203 100.157L49.9203 33.0159H22.8175L22.8175 100.157H49.9203Z" fill="#F0F0F0"/>
<path d="M49.9203 100.154L49.9203 33.0133H49.5053L49.5053 100.154H49.9203Z" fill="#E6E6E6"/>
<path d="M46.3 65.037C47.0507 65.037 47.6593 64.4284 47.6593 63.6777C47.6593 62.927 47.0507 62.3185 46.3 62.3185C45.5493 62.3185 44.9407 62.927 44.9407 63.6777C44.9407 64.4284 45.5493 65.037 46.3 65.037Z" fill="#E6E6E6"/>
<path d="M46.832 64.7551C47.5827 64.7551 48.1913 64.1465 48.1913 63.3958C48.1913 62.6451 47.5827 62.0366 46.832 62.0366C46.0813 62.0366 45.4727 62.6451 45.4727 63.3958C45.4727 64.1465 46.0813 64.7551 46.832 64.7551Z" fill="#FAFAFA"/>
<path d="M118.436 23.9241H96.9091V64.3614H118.436V23.9241Z" fill="#E0E0E0"/>
<path d="M119.357 23.9241H97.8295V64.3614H119.357V23.9241Z" fill="#F5F5F5"/>
<path d="M117.705 62.5818V25.7036H99.4787V62.5818H117.705Z" fill="#FAFAFA"/>
<path d="M117.708 62.5818V25.7036H117.013V62.5818H117.708Z" fill="#E0E0E0"/>
<path d="M118.676 51.9019H98.513V54.2906H118.676V51.9019Z" fill="#F5F5F5"/>
<path d="M91.8923 23.9241H70.365V64.3614H91.8923V23.9241Z" fill="#E0E0E0"/>
<path d="M92.8101 23.9241H71.2827V64.3614H92.8101V23.9241Z" fill="#F5F5F5"/>
<path d="M91.1609 62.5792V25.7009H72.9346V62.5792H91.1609Z" fill="#FAFAFA"/>
<path d="M91.1609 62.5818V25.7036H90.4666V62.5818H91.1609Z" fill="#E0E0E0"/>
<path d="M92.1291 51.9019H71.9662V54.2906H92.1291V51.9019Z" fill="#F5F5F5"/>
<path d="M42.4271 28.3237L42.185 28.5658H30.3081V23.9241L42.4271 28.3237Z" fill="#E0E0E0"/>
<path d="M30.7683 28.3237H42.4271L41.9695 23.9241H30.3081L30.7683 28.3237Z" fill="#F5F5F5"/>
<path d="M54.6072 66.1915H59.6346V61.1641H54.6072V66.1915Z" fill="#EBEBEB"/>
<path d="M54.6099 61.1641H54.4396V66.1915H54.6099V61.1641Z" fill="#E0E0E0"/>
<path d="M59.1664 65.2338L58.9855 65.4147H55.2456V61.9673L59.1664 65.2338Z" fill="#E0E0E0"/>
<path d="M55.5861 65.2338H59.1664L58.8286 61.9673H55.2456L55.5861 65.2338Z" fill="#FAFAFA"/>
<path d="M61.7891 72.7803L64.3161 70.498L66.8405 72.7803V101.785H61.7891V72.7803Z" fill="#F0F0F0"/>
<path d="M70.5432 72.7803L73.0676 70.498L75.5946 72.7803V101.785H70.5432V72.7803Z" fill="#F0F0F0"/>
<path d="M79.2945 72.7803L81.8215 70.498L84.3459 72.7803V101.785H79.2945V72.7803Z" fill="#F0F0F0"/>
<path d="M88.0487 72.7803L90.573 70.498L93.0973 72.7803V101.785H88.0487V72.7803Z" fill="#F0F0F0"/>
<path d="M96.8001 72.7803L99.3271 70.498L101.851 72.7803V101.785H96.8001V72.7803Z" fill="#F0F0F0"/>
<path d="M105.554 72.7803L108.078 70.498L110.603 72.7803V101.785H105.554V72.7803Z" fill="#F0F0F0"/>
<path d="M114.306 72.7803L116.833 70.498L119.357 72.7803V101.785H114.306V72.7803Z" fill="#F0F0F0"/>
<path d="M64.3135 78.2864H116.83V76.999H64.3135V78.2864Z" fill="#FF0066"/>
<path d="M64.3135 93.5229H116.83V92.2355H64.3135V93.5229Z" fill="#FF0066"/>
<path d="M66.4999 113.731C94.9839 113.731 118.075 112.383 118.075 110.72C118.075 109.057 94.9839 107.709 66.4999 107.709C38.016 107.709 14.9252 109.057 14.9252 110.72C14.9252 112.383 38.016 113.731 66.4999 113.731Z" fill="#F5F5F5"/>
<path d="M93.6161 50.4841L93.7571 50.6038L93.9247 50.7368C94.0364 50.8273 94.1561 50.9177 94.2732 51.0028C94.5125 51.1757 94.7573 51.346 95.0126 51.5003C95.5188 51.8205 96.0458 52.1067 96.59 52.3568C97.1371 52.6023 97.6975 52.8172 98.2685 53.0005C98.5584 53.0776 98.843 53.1734 99.1383 53.2319L99.5798 53.3277H99.633C99.633 53.3277 99.633 53.3277 99.6197 53.3277C99.6064 53.3277 99.5931 53.3569 99.6197 53.3277C99.674 53.2695 99.7173 53.2019 99.7474 53.1282C99.8502 52.8936 99.9226 52.6469 99.9629 52.394C100.057 51.8001 100.106 51.1999 100.109 50.5985C100.109 49.9787 100.109 49.3483 100.072 48.7179C100.035 48.0875 99.9948 47.4464 99.9416 46.8213L100.873 46.6537C101.195 47.9338 101.412 49.238 101.522 50.5533C101.584 51.2382 101.584 51.9273 101.522 52.6121C101.485 52.9995 101.401 53.3809 101.272 53.748C101.189 53.9765 101.071 54.1909 100.923 54.3837C100.731 54.6383 100.468 54.8315 100.168 54.9396C99.9377 55.0214 99.6926 55.0523 99.4495 55.0301L99.3404 55.0168H99.2766L98.7685 54.9343C98.4281 54.8838 98.0956 54.7933 97.7577 54.7215C97.0914 54.5519 96.4387 54.3322 95.8053 54.0645C95.1712 53.7951 94.5577 53.4795 93.9699 53.1202C93.6746 52.942 93.39 52.7451 93.1081 52.5403C92.9671 52.4366 92.8288 52.3302 92.6904 52.2185C92.6213 52.1626 92.5548 52.1041 92.4856 52.0429C92.4165 51.9817 92.3553 51.9285 92.2648 51.8434L93.6161 50.4841Z" fill="#9F5B53"/>
<path d="M90.9481 49.3669C93.6427 48.9999 95.8186 51.1784 95.8186 51.1784L93.8076 54.5992C93.8076 54.5992 90.706 53.2931 90.2379 52.136C89.7537 50.939 89.5649 49.5531 90.9481 49.3669Z" fill="#407BFF"/>
<path opacity="0.3" d="M90.9481 49.3669C93.6427 48.9999 95.8186 51.1784 95.8186 51.1784L93.8076 54.5992C93.8076 54.5992 90.706 53.2931 90.2379 52.136C89.7537 50.939 89.5649 49.5531 90.9481 49.3669Z" fill="black"/>
<path d="M100.194 47.3241L98.718 45.9621L100.907 45.1083C100.907 45.1083 101.601 46.2787 101.04 47.4491L100.194 47.3241Z" fill="#9F5B53"/>
<path d="M98.42 44.0097L100.162 43.6772L100.907 45.1083L98.7179 45.9621L98.42 44.0097Z" fill="#9F5B53"/>
<path d="M81.396 108.68L83.5666 108.892L85.8276 103.724L83.657 103.511L81.396 108.68Z" fill="#9F5B53"/>
<path d="M67.4124 101.04L69.043 102.572L72.5622 98.7019L70.9316 97.1724L67.4124 101.04Z" fill="#9F5B53"/>
<path d="M69.7958 101.838L68.5696 99.6303C68.5491 99.5921 68.5154 99.5626 68.4747 99.5474C68.4341 99.5322 68.3893 99.5324 68.3488 99.5479L66.4628 100.266C66.4159 100.286 66.3736 100.315 66.3388 100.352C66.3039 100.389 66.2773 100.433 66.2607 100.481C66.2441 100.529 66.2379 100.58 66.2425 100.63C66.2471 100.681 66.2623 100.73 66.2873 100.774C66.7288 101.538 66.9789 101.883 67.5162 102.854C67.8487 103.45 68.4951 104.82 68.9526 105.645C69.4101 106.469 70.2507 106.062 70.1336 105.677C69.6016 103.953 69.708 102.993 69.8676 102.232C69.8902 102.096 69.8648 101.957 69.7958 101.838Z" fill="#263238"/>
<path d="M83.8566 108.222H81.1966C81.1487 108.223 81.1023 108.239 81.0644 108.268C81.0265 108.297 80.9991 108.338 80.9865 108.384L80.4066 110.494C80.3923 110.544 80.39 110.596 80.3999 110.647C80.4098 110.698 80.4316 110.746 80.4635 110.787C80.4953 110.828 80.5364 110.861 80.5834 110.883C80.6304 110.905 80.6819 110.916 80.7338 110.914C81.6727 110.914 82.117 110.914 83.29 110.914H86.873C87.8493 110.914 88.0514 109.93 87.6498 109.85C85.841 109.451 84.7982 108.898 84.2423 108.374C84.1385 108.275 84.0001 108.22 83.8566 108.222Z" fill="#263238"/>
<path d="M85.8249 103.727L84.6625 106.389H82.3962L83.6543 103.514L85.8249 103.727Z" fill="#8A4743"/>
<path d="M70.929 97.1724L72.5623 98.7046L70.7455 100.697L69.1149 99.1648L70.929 97.1724Z" fill="#8A4743"/>
<path d="M93.2544 49.617C93.2544 49.617 94.228 50.0479 90.9562 63.0021L81.8616 62.2041C82.3351 58.5147 82.5373 56.2324 81.4227 48.4838C82.7194 48.3324 84.0253 48.2746 85.3303 48.3109C86.7134 48.3345 88.093 48.4572 89.4586 48.678C90.7388 48.9272 92.0056 49.2406 93.2544 49.617Z" fill="#407BFF"/>
<path opacity="0.3" d="M93.2544 49.617C93.2544 49.617 94.228 50.0479 90.9562 63.0021L81.8616 62.2041C82.3351 58.5147 82.5373 56.2324 81.4227 48.4838C82.7194 48.3324 84.0253 48.2746 85.3303 48.3109C86.7134 48.3345 88.093 48.4572 89.4586 48.678C90.7388 48.9272 92.0056 49.2406 93.2544 49.617Z" fill="black"/>
<path d="M85.3302 48.3215C85.3302 48.3215 84.8142 48.2657 84.205 48.2657C83.8379 48.8323 84.9525 50.9842 86.9209 52.6015C87.3618 51.8575 87.9216 51.1908 88.578 50.6278L85.3302 48.3215Z" fill="#FAFAFA"/>
<path d="M89.4585 48.678C89.7217 48.6945 89.9827 48.7364 90.2378 48.803C90.6049 49.3696 91.3151 51.3726 90.2378 52.6015C89.7969 51.8575 89.2371 51.1908 88.5807 50.6278L89.4585 48.678Z" fill="#FAFAFA"/>
<path d="M88.8734 52.0695C88.8734 52.2318 88.8282 52.3648 88.751 52.3701C88.6739 52.3754 88.6074 52.2451 88.5968 52.0855C88.5861 51.9259 88.642 51.7876 88.7191 51.7849C88.7963 51.7822 88.8654 51.9073 88.8734 52.0695Z" fill="#FAFAFA"/>
<path d="M88.8442 53.3011C88.8442 53.4607 88.775 53.591 88.6979 53.591C88.6207 53.591 88.5648 53.4554 88.5675 53.2931C88.5702 53.1309 88.6367 53.0032 88.7138 53.0032C88.791 53.0032 88.8575 53.1388 88.8442 53.3011Z" fill="#FAFAFA"/>
<path d="M86.1416 43.7065C86.2879 45.0578 86.3357 47.5156 85.3436 48.3216C86.3172 49.2272 87.4045 50.0025 88.5781 50.6278C90.1582 49.5372 89.4586 48.678 89.4586 48.678C88.0089 48.1966 88.1419 47.1006 88.4877 46.0898L86.1416 43.7065Z" fill="#9F5B53"/>
<path d="M87.099 44.688L88.4875 46.0978C88.4036 46.3323 88.3395 46.5734 88.296 46.8186C87.7374 46.6883 86.9288 46.1084 86.9208 45.5099C86.93 45.2274 86.9904 44.9489 87.099 44.688Z" fill="#8A4743"/>
<path d="M88.7963 39.7031C88.7963 39.7031 90.2699 41.1502 90.5944 41.8551C91.4882 42.1876 91.2461 39.8335 90.5678 38.4716C89.3761 39.5329 88.7963 39.7031 88.7963 39.7031Z" fill="#263238"/>
<path d="M84.9525 41.5944C85.5164 43.7544 85.7079 44.6801 87.0326 45.5845C89.0223 46.9437 91.5546 45.7786 91.6424 43.4964C91.7275 41.4402 90.7912 38.2561 88.4823 37.8093C87.9737 37.7073 87.4474 37.7371 86.9536 37.896C86.4598 38.0548 86.0148 38.3374 85.661 38.7168C85.3072 39.0961 85.0564 39.5597 84.9324 40.0634C84.8084 40.5671 84.8153 41.0942 84.9525 41.5944Z" fill="#9F5B53"/>
<path d="M89.8496 38.836C90.8392 38.9823 91.826 38.0566 90.2247 37.0644C90.7381 37.0112 91.2887 35.2024 89.4267 35.3009C89.3363 34.4417 87.4929 33.6756 86.5007 35.0349C85.3542 34.2794 83.7263 35.0508 84.0907 36.2239C82.774 36.3063 82.0877 38.1045 83.1757 38.3971C81.867 39.1951 81.6382 40.4852 82.9097 40.7193C83.0852 42.2115 86.0086 41.5439 85.7825 40.1554C86.3145 40.44 87.985 39.8282 87.6445 39.0914C88.1845 39.7856 89.8496 39.4691 89.8496 38.836Z" fill="#263238"/>
<path d="M83.79 40.7353C83.79 40.7353 84.8753 42.4909 85.0189 43.2543C85.8169 43.7863 86.1388 41.4481 85.8169 39.9639C84.3885 40.698 83.79 40.7353 83.79 40.7353Z" fill="#263238"/>
<path d="M84.7743 43.5442C84.9761 43.9258 85.3202 44.2125 85.7319 44.3422C86.2798 44.5045 86.5645 44.0177 86.4235 43.4963C86.2931 43.0255 85.8542 42.3738 85.301 42.4323C85.1799 42.4488 85.0648 42.4952 84.9662 42.5673C84.8676 42.6395 84.7886 42.7351 84.7363 42.8455C84.684 42.956 84.6601 43.0777 84.6667 43.1997C84.6733 43.3217 84.7103 43.4401 84.7743 43.5442Z" fill="#9F5B53"/>
<path d="M90.9561 63.0021C90.9561 63.0021 94.0338 76.6133 91.9776 86.2079C90.6024 92.6345 85.6414 105.626 85.6414 105.626L81.7632 105.525C81.7632 105.525 85.5191 91.9003 86.2852 86.5431C87.6152 77.3767 84.2848 62.4329 84.2848 62.4329L90.9561 63.0021Z" fill="#407BFF"/>
<path opacity="0.6" d="M90.9561 63.0021C90.9561 63.0021 94.0338 76.6133 91.9776 86.2079C90.6024 92.6345 85.6414 105.626 85.6414 105.626L81.7632 105.525C81.7632 105.525 85.5191 91.9003 86.2852 86.5431C87.6152 77.3767 84.2848 62.4329 84.2848 62.4329L90.9561 63.0021Z" fill="#FAFAFA"/>
<path d="M87.4077 65.7499L85.4686 68.8089C86.0525 72.4362 86.4228 76.0947 86.5778 79.7654C89.3043 74.8817 88.0142 68.3354 87.4077 65.7499Z" fill="#407BFF"/>
<path opacity="0.4" d="M87.4077 65.7499L85.4686 68.8089C86.0525 72.4362 86.4228 76.0947 86.5778 79.7654C89.3043 74.8817 88.0142 68.3354 87.4077 65.7499Z" fill="#FAFAFA"/>
<path d="M86.1893 105.817L81.396 105.698L81.6753 104.224L86.9049 104.472L86.1893 105.817Z" fill="#407BFF"/>
<path opacity="0.3" d="M86.1893 105.817L81.396 105.698L81.6753 104.224L86.9049 104.472L86.1893 105.817Z" fill="black"/>
<path d="M88.9665 62.8558C88.9665 62.8558 87.163 77.2916 83.2502 85.1705C80.0901 91.5359 71.6552 100.599 71.6552 100.599L69.5006 98.3774C69.5006 98.3774 75.1957 88.5354 77.5445 84.3007C83.3034 73.9267 78.6085 66.0212 81.8617 62.2227L88.9665 62.8558Z" fill="#407BFF"/>
<path opacity="0.6" d="M88.9665 62.8558C88.9665 62.8558 87.163 77.2916 83.2502 85.1705C80.0901 91.5359 71.6552 100.599 71.6552 100.599L69.5006 98.3774C69.5006 98.3774 75.1957 88.5354 77.5445 84.3007C83.3034 73.9267 78.6085 66.0212 81.8617 62.2227L88.9665 62.8558Z" fill="#FAFAFA"/>
<path d="M71.8732 100.894L69.0908 98.1832L70.0139 96.925L73.0463 100.061L71.8732 100.894Z" fill="#407BFF"/>
<path opacity="0.3" d="M71.8732 100.894L69.0908 98.1832L70.0139 96.925L73.0463 100.061L71.8732 100.894Z" fill="black"/>
<path d="M81.7711 61.6694L81.2897 62.4462C81.2524 62.5073 81.3242 62.5792 81.428 62.5871L90.9641 63.4117C91.0465 63.4117 91.1184 63.3851 91.129 63.3346L91.2806 62.5366C91.2806 62.4807 91.2248 62.4249 91.1343 62.4169L81.9254 61.6189C81.8975 61.6136 81.8687 61.6154 81.8417 61.6242C81.8147 61.6331 81.7904 61.6486 81.7711 61.6694Z" fill="#263238"/>
<path d="M82.9203 62.8052L82.6729 62.7839C82.6224 62.7839 82.5878 62.752 82.5931 62.7201L82.8006 61.6721C82.8006 61.6428 82.8538 61.6215 82.9017 61.6242L83.1491 61.6455C83.197 61.6455 83.2315 61.68 83.2262 61.7093L83.0187 62.7573C83.0134 62.7893 82.9682 62.8105 82.9203 62.8052Z" fill="#407BFF"/>
<path opacity="0.6" d="M82.9203 62.8052L82.6729 62.7839C82.6224 62.7839 82.5878 62.752 82.5931 62.7201L82.8006 61.6721C82.8006 61.6428 82.8538 61.6215 82.9017 61.6242L83.1491 61.6455C83.197 61.6455 83.2315 61.68 83.2262 61.7093L83.0187 62.7573C83.0134 62.7893 82.9682 62.8105 82.9203 62.8052Z" fill="#FAFAFA"/>
<path d="M90.2645 63.441L90.0171 63.4197C89.9692 63.4197 89.9346 63.3878 89.9399 63.3559L90.1474 62.3079C90.1474 62.2786 90.198 62.2573 90.2458 62.26L90.4932 62.2813C90.5438 62.2813 90.5783 62.3159 90.573 62.3451L90.3655 63.3931C90.3561 63.411 90.3412 63.4253 90.323 63.434C90.3048 63.4426 90.2842 63.4451 90.2645 63.441Z" fill="#407BFF"/>
<path opacity="0.6" d="M90.2645 63.441L90.0171 63.4197C89.9692 63.4197 89.9346 63.3878 89.9399 63.3559L90.1474 62.3079C90.1474 62.2786 90.198 62.2573 90.2458 62.26L90.4932 62.2813C90.5438 62.2813 90.5783 62.3159 90.573 62.3451L90.3655 63.3931C90.3561 63.411 90.3412 63.4253 90.323 63.434C90.3048 63.4426 90.2842 63.4451 90.2645 63.441Z" fill="#FAFAFA"/>
<path d="M86.5911 63.1244L86.3464 63.1031C86.2958 63.1031 86.2612 63.0686 86.2666 63.0393L86.474 61.9913C86.474 61.9593 86.5246 61.9381 86.5751 61.9434L86.8198 61.9647C86.8704 61.9647 86.905 61.9966 86.8996 62.0285L86.6922 63.0739C86.6868 63.1058 86.6416 63.1271 86.5911 63.1244Z" fill="#407BFF"/>
<path opacity="0.6" d="M86.5911 63.1244L86.3464 63.1031C86.2958 63.1031 86.2612 63.0686 86.2666 63.0393L86.474 61.9913C86.474 61.9593 86.5246 61.9381 86.5751 61.9434L86.8198 61.9647C86.8704 61.9647 86.905 61.9966 86.8996 62.0285L86.6922 63.0739C86.6868 63.1058 86.6416 63.1271 86.5911 63.1244Z" fill="#FAFAFA"/>
<path d="M88.3865 41.5545C88.4211 41.7327 88.5434 41.8578 88.6525 41.8338C88.7615 41.8099 88.8334 41.6503 88.7988 41.4721C88.7642 41.2938 88.6418 41.1688 88.5328 41.1901C88.4237 41.2114 88.3519 41.3763 88.3865 41.5545Z" fill="#263238"/>
<path d="M90.3975 41.1581C90.4321 41.3364 90.5544 41.4614 90.6635 41.4401C90.7726 41.4188 90.8444 41.2539 90.8098 41.0757C90.7752 40.8975 90.6529 40.7724 90.5438 40.8097C90.4347 40.8469 90.3602 40.9799 90.3975 41.1581Z" fill="#263238"/>
<path d="M90.4933 40.815L90.8976 40.6075C90.8976 40.6075 90.7433 40.9853 90.4933 40.815Z" fill="#263238"/>
<path d="M89.9241 41.5704C90.1634 41.944 90.4524 42.2831 90.7833 42.5786C90.7053 42.6614 90.6101 42.7262 90.5044 42.7685C90.3987 42.8108 90.2851 42.8295 90.1715 42.8233L89.9241 41.5704Z" fill="#892B29"/>
<path d="M89.3496 43.6718C88.975 43.6768 88.6126 43.5388 88.3361 43.2861C88.3283 43.2774 88.3239 43.266 88.3239 43.2542C88.3239 43.2424 88.3283 43.2311 88.3361 43.2223C88.3446 43.2139 88.3561 43.2091 88.368 43.2091C88.38 43.2091 88.3915 43.2139 88.3999 43.2223C88.5704 43.3716 88.7735 43.479 88.9929 43.5358C89.2123 43.5926 89.4419 43.5973 89.6634 43.5495C89.6751 43.5471 89.6872 43.5494 89.6971 43.5559C89.7071 43.5623 89.7141 43.5725 89.7166 43.5841C89.7178 43.5897 89.7178 43.5954 89.7167 43.601C89.7156 43.6066 89.7133 43.612 89.7101 43.6167C89.7069 43.6214 89.7027 43.6254 89.6979 43.6285C89.6931 43.6316 89.6877 43.6336 89.6821 43.6346C89.5728 43.6582 89.4614 43.6706 89.3496 43.6718Z" fill="#263238"/>
<path d="M87.3971 40.432C87.3822 40.4354 87.3667 40.4354 87.3518 40.432C87.332 40.4194 87.3179 40.3996 87.3124 40.3768C87.307 40.3539 87.3106 40.3299 87.3226 40.3097C87.4042 40.1655 87.5193 40.0431 87.6582 39.9528C87.7971 39.8625 87.9557 39.807 88.1206 39.791C88.1437 39.7909 88.1659 39.7997 88.1827 39.8155C88.1996 39.8314 88.2097 39.853 88.211 39.8761C88.2114 39.8876 88.2095 39.8991 88.2054 39.9099C88.2013 39.9207 88.1951 39.9305 88.1872 39.9389C88.1793 39.9473 88.1698 39.9541 88.1593 39.9588C88.1488 39.9636 88.1374 39.9662 88.1259 39.9665C87.99 39.982 87.8597 40.0294 87.7455 40.1047C87.6314 40.1801 87.5366 40.2813 87.4689 40.4001C87.4604 40.4108 87.4494 40.4193 87.4369 40.4248C87.4244 40.4304 87.4107 40.4329 87.3971 40.432Z" fill="#263238"/>
<path d="M91.1742 40.1181C91.1602 40.1217 91.1456 40.1217 91.1316 40.1181C91.0126 40.0458 90.8778 40.0035 90.7388 39.9947C90.5999 39.9859 90.4608 40.0109 90.3336 40.0676C90.3127 40.078 90.2886 40.08 90.2663 40.0731C90.244 40.0661 90.2252 40.0508 90.2139 40.0303C90.2035 40.0094 90.2015 39.9853 90.2084 39.963C90.2154 39.9407 90.2307 39.9219 90.2512 39.9106C90.4025 39.8422 90.568 39.8114 90.7338 39.8206C90.8996 39.8299 91.0607 39.879 91.2034 39.9638C91.2136 39.9694 91.2226 39.9769 91.2298 39.9859C91.2371 39.995 91.2424 40.0054 91.2457 40.0165C91.2489 40.0276 91.2499 40.0393 91.2485 40.0508C91.2472 40.0623 91.2437 40.0734 91.238 40.0835C91.2306 40.0936 91.221 40.102 91.21 40.108C91.1989 40.1139 91.1867 40.1174 91.1742 40.1181Z" fill="#263238"/>
<path d="M82.1142 51.7503C81.7446 52.488 81.3343 53.2046 80.8853 53.8969C80.4384 54.5832 79.9649 55.2482 79.4569 55.8946C78.9424 56.5396 78.3899 57.1534 77.8023 57.7326C77.5018 58.0199 77.2012 58.3072 76.8767 58.5732L76.6373 58.778C76.5249 58.8702 76.4057 58.9537 76.2808 59.028C75.9741 59.2088 75.6233 59.3009 75.2674 59.294C74.9053 59.2789 74.556 59.1557 74.2645 58.9402C74.0391 58.7764 73.8399 58.579 73.674 58.355C73.4025 57.9836 73.1765 57.5808 73.001 57.1554C72.6837 56.3867 72.4337 55.5919 72.2536 54.78C71.8996 53.2094 71.6658 51.6141 71.554 50.008L72.493 49.8909C72.6446 50.6464 72.8069 51.4178 72.9957 52.1732C73.1846 52.9286 73.3761 53.6814 73.6075 54.4103C73.8231 55.1271 74.0897 55.8276 74.4055 56.5063C74.5494 56.8055 74.728 57.0867 74.9375 57.3442C75.0141 57.4343 75.1038 57.5123 75.2035 57.5757C75.278 57.6182 75.3019 57.6102 75.3046 57.6049C75.3429 57.5935 75.3789 57.5755 75.411 57.5517C75.4456 57.5278 75.4881 57.4932 75.5334 57.456L75.7355 57.2644C76.0015 57.0171 76.2675 56.7457 76.5335 56.4664C77.0442 55.9158 77.5177 55.3253 77.9806 54.7268C78.4434 54.1283 78.8663 53.4899 79.2707 52.8435C79.4755 52.5243 79.6723 52.1972 79.8665 51.8673C80.0607 51.5375 80.2442 51.197 80.3985 50.8884L82.1142 51.7503Z" fill="#9F5B53"/>
<path d="M72.9106 50.2182L72.6738 48.2258L70.7001 49.4973C70.7001 49.4973 71.3465 50.5613 72.2403 50.8486L72.9106 50.2182Z" fill="#9F5B53"/>
<path d="M71.9424 47.4171L70.6523 48.6354L70.7002 49.4972L72.674 48.2258L71.9424 47.4171Z" fill="#9F5B53"/>
<path d="M81.4226 48.4945C80.308 48.694 78.7466 51.8913 78.7466 51.8913L81.5582 54.4316C81.5582 54.4316 83.7926 51.9951 83.6729 50.5427C83.5719 49.3085 82.843 48.2445 81.4226 48.4945Z" fill="#407BFF"/>
<path opacity="0.3" d="M81.4226 48.4945C80.308 48.694 78.7466 51.8913 78.7466 51.8913L81.5582 54.4316C81.5582 54.4316 83.7926 51.9951 83.6729 50.5427C83.5719 49.3085 82.843 48.2445 81.4226 48.4945Z" fill="black"/>
<path d="M70.2241 103.024C70.195 103.025 70.1661 103.019 70.139 103.009C69.873 102.921 69.6974 102.426 69.607 102.139C69.6054 102.13 69.6061 102.122 69.6089 102.114C69.6117 102.106 69.6165 102.099 69.6229 102.093C69.6301 102.089 69.6384 102.087 69.6469 102.087C69.6554 102.087 69.6637 102.089 69.6708 102.093C69.7533 102.136 70.4688 102.516 70.4874 102.798C70.4903 102.829 70.4848 102.859 70.4717 102.887C70.4586 102.915 70.4383 102.938 70.413 102.955C70.3591 102.998 70.2929 103.022 70.2241 103.024ZM69.732 102.226C69.8544 102.62 70.014 102.883 70.1656 102.934C70.2004 102.944 70.2371 102.945 70.2724 102.937C70.3077 102.929 70.3404 102.913 70.3678 102.889C70.3811 102.88 70.3919 102.869 70.399 102.855C70.406 102.84 70.409 102.825 70.4077 102.809C70.3944 102.628 69.9767 102.357 69.732 102.218V102.226Z" fill="#407BFF"/>
<path d="M70.3357 102.33C70.093 102.329 69.8538 102.273 69.6362 102.165C69.6296 102.162 69.6242 102.156 69.6205 102.15C69.6167 102.143 69.6148 102.136 69.6149 102.128C69.6149 102.12 69.6168 102.112 69.6205 102.105C69.6242 102.098 69.6296 102.093 69.6362 102.088C69.6601 102.075 70.224 101.766 70.5273 101.873C70.5654 101.885 70.6003 101.906 70.6293 101.933C70.6583 101.961 70.6807 101.995 70.6948 102.032C70.7133 102.068 70.7194 102.109 70.7122 102.148C70.705 102.188 70.6848 102.224 70.6549 102.25C70.5596 102.31 70.4479 102.338 70.3357 102.33ZM69.7558 102.128C69.9979 102.232 70.4661 102.296 70.5964 102.181C70.6177 102.163 70.6416 102.133 70.6124 102.064C70.6028 102.039 70.5875 102.016 70.5677 101.998C70.5478 101.979 70.524 101.965 70.498 101.958C70.2932 101.878 69.9154 102.048 69.7558 102.128Z" fill="#407BFF"/>
<path d="M85.0402 108.653C84.7947 108.647 84.5505 108.616 84.3114 108.56C84.3024 108.558 84.2942 108.554 84.2879 108.547C84.2817 108.54 84.2778 108.532 84.2768 108.523C84.2758 108.514 84.2775 108.504 84.2818 108.496C84.286 108.488 84.2927 108.482 84.3007 108.477C84.4125 108.424 85.3807 107.98 85.6307 108.142C85.6526 108.158 85.6701 108.179 85.6813 108.203C85.6925 108.227 85.6971 108.254 85.6946 108.281C85.6926 108.33 85.6796 108.377 85.6565 108.421C85.6335 108.464 85.6011 108.502 85.5616 108.531C85.4047 108.625 85.2225 108.667 85.0402 108.653ZM84.463 108.501C84.7503 108.555 85.2823 108.624 85.5004 108.459C85.5298 108.438 85.5539 108.411 85.5705 108.379C85.5872 108.347 85.596 108.311 85.5962 108.275C85.5962 108.238 85.5962 108.225 85.5722 108.217C85.4366 108.124 84.854 108.323 84.463 108.501Z" fill="#407BFF"/>
<path d="M84.322 108.563C84.3124 108.565 84.3023 108.565 84.2927 108.563C84.2863 108.557 84.2815 108.55 84.2787 108.542C84.2759 108.534 84.2752 108.526 84.2768 108.517C84.2768 108.477 84.5135 107.52 85.0322 107.584C85.1626 107.6 85.1998 107.666 85.2051 107.717C85.2397 107.961 84.6279 108.451 84.338 108.568L84.322 108.563ZM84.9843 107.658C84.6492 107.658 84.4523 108.214 84.3885 108.438C84.7024 108.273 85.1386 107.874 85.1173 107.719C85.1173 107.719 85.1173 107.671 85.0216 107.661L84.9843 107.658Z" fill="#407BFF"/>
<path d="M88.485 41.2113L88.8866 41.0038C88.8866 41.0038 88.7323 41.3816 88.485 41.2113Z" fill="#263238"/>
<path d="M32.859 41.762C35.2171 39.3971 38.0195 37.5216 41.105 36.2434C44.1905 34.9652 47.4982 34.3095 50.8379 34.314H54.4369C54.4369 34.314 71.4157 38.7588 71.4157 56.9479C71.4157 74.7274 59.6611 90.4639 54.4395 95.6935H50.8432L32.859 77.7092C28.0948 72.9409 25.4186 66.4761 25.4186 59.7356C25.4186 52.9951 28.0948 46.5303 32.859 41.762ZM50.8406 71.554C53.1755 71.554 55.458 70.8616 57.3994 69.5643C59.3408 68.267 60.8539 66.4232 61.7473 64.2659C62.6407 62.1087 62.8743 59.7349 62.4186 57.4449C61.9629 55.1548 60.8383 53.0514 59.1871 51.4005C57.5358 49.7497 55.4321 48.6255 53.142 48.1703C50.8519 47.7151 48.4782 47.9493 46.3211 48.8432C44.1641 49.7371 42.3205 51.2506 41.0237 53.1923C39.7269 55.134 39.035 57.4166 39.0355 59.7516C39.0418 62.8783 40.2884 65.8748 42.5016 68.0835C44.7148 70.2923 47.7138 71.5327 50.8406 71.5327V71.554Z" fill="#263238"/>
<path d="M72.884 41.2806C71.8313 40.2288 70.6923 39.267 69.4792 38.4051L69.6308 38.187C70.8576 39.058 72.009 40.0306 73.0729 41.0944L72.884 41.2806ZM67.8885 37.365C67.2634 36.9873 66.6144 36.6309 65.9627 36.301L66.0797 36.0616C66.7394 36.3888 67.3938 36.7479 68.0269 37.1256L67.8885 37.365Z" fill="#B5B1FF"/>
<path opacity="0.2" d="M72.884 41.2806C71.8313 40.2288 70.6923 39.267 69.4792 38.4051L69.6308 38.187C70.8576 39.058 72.009 40.0306 73.0729 41.0944L72.884 41.2806ZM67.8885 37.365C67.2634 36.9873 66.6144 36.6309 65.9627 36.301L66.0797 36.0616C66.7394 36.3888 67.3938 36.7479 68.0269 37.1256L67.8885 37.365Z" fill="black"/>
<path d="M36.4554 41.762C41.2528 37.1431 47.6708 34.5907 54.33 34.6533C60.9892 34.716 67.3581 37.3886 72.0677 42.0969C76.7774 46.8052 79.452 53.1733 79.5166 59.8325C79.5812 66.4917 77.0307 72.9105 72.4132 77.7092L54.4396 95.6855L36.4554 77.7012C31.6923 72.9339 29.0168 66.4706 29.0168 59.7316C29.0168 52.9926 31.6923 46.5293 36.4554 41.762ZM54.4369 71.554C56.7719 71.554 59.0544 70.8616 60.9958 69.5643C62.9372 68.267 64.4502 66.4232 65.3437 64.2659C66.2371 62.1087 66.4707 59.7349 66.015 57.4449C65.5593 55.1548 64.4347 53.0514 62.7835 51.4005C61.1322 49.7497 59.0285 48.6255 56.7384 48.1703C54.4482 47.7151 52.0745 47.9493 49.9175 48.8432C47.7604 49.7371 45.9169 51.2506 44.6201 53.1923C43.3233 55.134 42.6313 57.4166 42.6319 59.7516C42.6382 62.8783 43.8848 65.8748 46.0979 68.0835C48.3111 70.2923 51.3102 71.5327 54.4369 71.5327V71.554Z" fill="#B5B1FF"/>
<path opacity="0.2" d="M36.4554 41.762C41.2528 37.1431 47.6708 34.5907 54.33 34.6533C60.9892 34.716 67.3581 37.3886 72.0677 42.0969C76.7774 46.8052 79.452 53.1733 79.5166 59.8325C79.5812 66.4917 77.0307 72.9105 72.4132 77.7092L54.4396 95.6855L36.4554 77.7012C31.6923 72.9339 29.0168 66.4706 29.0168 59.7316C29.0168 52.9926 31.6923 46.5293 36.4554 41.762ZM54.4369 71.554C56.7719 71.554 59.0544 70.8616 60.9958 69.5643C62.9372 68.267 64.4502 66.4232 65.3437 64.2659C66.2371 62.1087 66.4707 59.7349 66.015 57.4449C65.5593 55.1548 64.4347 53.0514 62.7835 51.4005C61.1322 49.7497 59.0285 48.6255 56.7384 48.1703C54.4482 47.7151 52.0745 47.9493 49.9175 48.8432C47.7604 49.7371 45.9169 51.2506 44.6201 53.1923C43.3233 55.134 42.6313 57.4166 42.6319 59.7516C42.6382 62.8783 43.8848 65.8748 46.0979 68.0835C48.3111 70.2923 51.3102 71.5327 54.4369 71.5327V71.554Z" fill="black"/>
<g style="mix-blend-mode:color-dodge" opacity="0.4">
<path d="M54.4395 94.2465C54.4305 94.2464 54.4216 94.2444 54.4134 94.2407C54.4051 94.2371 54.3977 94.2318 54.3916 94.2252L37.1601 76.9964C33.7454 73.5802 31.4202 69.2282 30.4786 64.4907C29.537 59.7531 30.0213 54.8428 31.8702 50.3804C33.7191 45.9181 36.8496 42.1042 40.8659 39.4209C44.8822 36.7376 49.604 35.3054 54.4342 35.3054C59.2644 35.3054 63.9861 36.7376 68.0024 39.4209C72.0187 42.1042 75.1492 45.9181 76.9981 50.3804C78.847 54.8428 79.3313 59.7531 78.3897 64.4907C77.4481 69.2282 75.123 73.5802 71.7082 76.9964L54.4847 94.2172C54.4799 94.2252 54.4733 94.232 54.4655 94.2371C54.4577 94.2422 54.4488 94.2454 54.4395 94.2465ZM54.4395 35.4365C49.6356 35.4374 44.9399 36.8626 40.9459 39.5319C36.9519 42.2013 33.8392 45.995 32.0011 50.4333C30.163 54.8716 29.6822 59.7553 30.6194 64.4668C31.5566 69.1784 33.8698 73.5063 37.2665 76.9033L54.4501 94.0842L71.6257 76.9113C75.0221 73.5124 77.3345 69.1829 78.2707 64.47C79.2069 59.7571 78.7248 54.8725 76.8854 50.4336C75.046 45.9947 71.9318 42.2007 67.9366 39.5313C63.9414 36.8619 59.2444 35.437 54.4395 35.4365ZM54.4395 72.6765C51.881 72.6765 49.3799 71.9178 47.2526 70.4963C45.1253 69.0748 43.4673 67.0544 42.4883 64.6906C41.5093 62.3267 41.2533 59.7257 41.7527 57.2164C42.252 54.707 43.4843 52.4021 45.2936 50.5932C47.1029 48.7842 49.4081 47.5524 51.9175 47.0536C54.4269 46.5548 57.0279 46.8113 59.3916 47.7908C61.7552 48.7703 63.7753 50.4287 65.1963 52.5563C66.6174 54.6839 67.3756 57.1851 67.3751 59.7436C67.3673 63.1709 66.0011 66.4554 63.5759 68.8772C61.1506 71.2989 57.8642 72.6604 54.4368 72.6632L54.4395 72.6765ZM54.4395 46.941C51.9074 46.941 49.4321 47.6919 47.3268 49.0986C45.2214 50.5054 43.5804 52.5049 42.6114 54.8443C41.6425 57.1836 41.3889 59.7578 41.8829 62.2413C42.3769 64.7247 43.5962 67.0059 45.3867 68.7964C47.1772 70.5869 49.4584 71.8062 51.9418 72.3002C54.4253 72.7942 56.9995 72.5406 59.3388 71.5716C61.6782 70.6026 63.6777 68.9617 65.0844 66.8563C66.4912 64.751 67.2421 62.2757 67.2421 59.7436C67.2421 56.3465 65.8933 53.0883 63.4921 50.6852C61.091 48.282 57.834 46.9305 54.4368 46.9277L54.4395 46.941Z" fill="#143FAE"/>
</g>
</svg>
