<svg width="133" height="133" viewBox="0 0 133 133" fill="none" xmlns="http://www.w3.org/2000/svg">
<path d="M133 101.718H0V101.785H133V101.718Z" fill="#EBEBEB"/>
<path d="M88.1045 106.722H85.793V106.788H88.1045V106.722Z" fill="#EBEBEB"/>
<path d="M46.0765 103.415H39.9106V103.482H46.0765V103.415Z" fill="#EBEBEB"/>
<path d="M122.033 104.841H106.959V104.908H122.033V104.841Z" fill="#EBEBEB"/>
<path d="M26.4377 104.841H11.3635V104.908H26.4377V104.841Z" fill="#EBEBEB"/>
<path d="M63.0421 89.8548H11.6801C11.2778 89.8541 10.8921 89.6938 10.6079 89.409C10.3236 89.1242 10.1639 88.7383 10.1639 88.3359V16.1356C10.1674 15.7355 10.3286 15.353 10.6125 15.0711C10.8964 14.7892 11.2801 14.6307 11.6801 14.63H63.0421C63.4449 14.63 63.8312 14.79 64.1161 15.0749C64.4009 15.3597 64.5609 15.746 64.5609 16.1489V88.3359C64.5609 88.7388 64.4009 89.1251 64.1161 89.4099C63.8312 89.6948 63.4449 89.8548 63.0421 89.8548ZM11.6801 14.6832C11.2954 14.6839 10.9267 14.8372 10.6549 15.1095C10.3831 15.3818 10.2304 15.7508 10.2304 16.1356V88.3359C10.2304 88.7207 10.3831 89.0897 10.6549 89.362C10.9267 89.6343 11.2954 89.7876 11.6801 89.7883H63.0421C63.4271 89.7876 63.7961 89.6344 64.0683 89.3621C64.3405 89.0899 64.4937 88.7209 64.4944 88.3359V16.1356C64.4937 15.7506 64.3405 15.3816 64.0683 15.1094C63.7961 14.8371 63.4271 14.6839 63.0421 14.6832H11.6801Z" fill="#EBEBEB"/>
<path d="M120.58 89.8548H69.2159C68.8133 89.8541 68.4274 89.6938 68.1427 89.4092C67.858 89.1245 67.6977 88.7385 67.697 88.3359V16.1356C67.7012 15.7353 67.863 15.3527 68.1473 15.0709C68.4316 14.7891 68.8156 14.6307 69.2159 14.63H120.58C120.98 14.6314 121.363 14.7902 121.646 15.072C121.93 15.3538 122.091 15.736 122.094 16.1356V88.3359C122.094 88.7378 121.935 89.1234 121.651 89.4081C121.367 89.6927 120.982 89.8534 120.58 89.8548ZM69.2159 14.6832C68.8309 14.6839 68.4619 14.8371 68.1897 15.1094C67.9175 15.3816 67.7642 15.7506 67.7635 16.1356V88.3359C67.7642 88.7209 67.9175 89.0899 68.1897 89.3621C68.4619 89.6344 68.8309 89.7876 69.2159 89.7883H120.58C120.965 89.7876 121.334 89.6344 121.607 89.3621C121.879 89.0899 122.032 88.7209 122.033 88.3359V16.1356C122.032 15.7506 121.879 15.3816 121.607 15.1094C121.334 14.8371 120.965 14.6839 120.58 14.6832H69.2159Z" fill="#EBEBEB"/>
<path d="M30.1378 62.8718L100.766 62.8718V24.5066L30.1378 24.5066V62.8718Z" fill="#E6E6E6"/>
<path d="M29.3345 62.8718L99.9628 62.8718V24.5066L29.3345 24.5066V62.8718Z" fill="#F5F5F5"/>
<path d="M98.5237 61.2545V26.1238L30.7762 26.1238V61.2545L98.5237 61.2545Z" fill="white"/>
<path d="M31.3827 61.2572L31.3827 26.1265H30.7762L30.7762 61.2572H31.3827Z" fill="#E6E6E6"/>
<path d="M29.9303 55.1046L99.3669 55.1046V52.934L29.9303 52.934V55.1046Z" fill="#F5F5F5"/>
<path d="M29.9303 36.6601L99.3669 36.6601V34.4895L29.9303 34.4895V36.6601Z" fill="#FF0066"/>
<path d="M27.7678 21.8306H102.336C102.394 21.8313 102.45 21.8552 102.492 21.897C102.533 21.9388 102.556 21.9953 102.556 22.0541C102.556 22.1126 102.533 22.1688 102.492 22.2102C102.45 22.2516 102.394 22.2748 102.336 22.2748H27.7678C27.7089 22.2748 27.6525 22.2517 27.6107 22.2103C27.5689 22.169 27.545 22.1129 27.5443 22.0541C27.545 21.995 27.5688 21.9386 27.6105 21.8968C27.6523 21.8551 27.7087 21.8313 27.7678 21.8306Z" fill="#E6E6E6"/>
<path d="M26.4377 22.054C26.4377 22.2735 26.5028 22.4881 26.6248 22.6706C26.7468 22.853 26.9202 22.9952 27.123 23.0791C27.3259 23.163 27.549 23.1848 27.7643 23.1418C27.9795 23.0987 28.1772 22.9928 28.3322 22.8374C28.4872 22.682 28.5926 22.4842 28.6351 22.2688C28.6776 22.0535 28.6553 21.8304 28.5709 21.6277C28.4866 21.4251 28.344 21.252 28.1612 21.1305C27.9785 21.0089 27.7637 20.9443 27.5442 20.9448C27.3987 20.9448 27.2546 20.9735 27.1202 21.0293C26.9857 21.0851 26.8636 21.1668 26.7608 21.2699C26.6581 21.3729 26.5766 21.4952 26.5212 21.6298C26.4657 21.7643 26.4373 21.9085 26.4377 22.054Z" fill="#E6E6E6"/>
<path d="M100.468 23.2936C100.547 23.2936 100.623 23.2622 100.679 23.2064C100.735 23.1505 100.766 23.0747 100.766 22.9957V22.344C100.766 22.265 100.735 22.1892 100.679 22.1333C100.623 22.0775 100.547 22.0461 100.468 22.0461C100.389 22.0461 100.313 22.0774 100.257 22.1332C100.2 22.189 100.168 22.2647 100.168 22.344V22.9877C100.167 23.0276 100.174 23.0673 100.189 23.1044C100.204 23.1415 100.226 23.1752 100.254 23.2037C100.282 23.2322 100.315 23.2548 100.352 23.2702C100.389 23.2857 100.428 23.2936 100.468 23.2936Z" fill="#E6E6E6"/>
<path d="M31.122 23.2936C31.2013 23.2936 31.2773 23.2623 31.3336 23.2065C31.3899 23.1507 31.4219 23.075 31.4226 22.9957V22.344C31.4198 22.2662 31.3869 22.1924 31.3309 22.1383C31.2748 22.0842 31.1999 22.054 31.122 22.0541C31.0824 22.0523 31.0429 22.0584 31.0057 22.0721C30.9686 22.0858 30.9345 22.1067 30.9055 22.1337C30.8765 22.1607 30.8532 22.1932 30.837 22.2293C30.8207 22.2654 30.8118 22.3044 30.8108 22.344V22.9877C30.8096 23.0287 30.817 23.0694 30.8323 23.1074C30.8476 23.1454 30.8705 23.1798 30.8998 23.2085C30.929 23.2372 30.9638 23.2596 31.002 23.2742C31.0402 23.2889 31.0811 23.2955 31.122 23.2936Z" fill="#E6E6E6"/>
<path opacity="0.5" d="M27.8396 30.1085L99.3696 30.1085V22.054L27.8396 22.054V30.1085Z" fill="#E0E0E0"/>
<path d="M96.9012 23.1633C97.5138 23.1633 98.0104 22.6667 98.0104 22.054C98.0104 21.4414 97.5138 20.9448 96.9012 20.9448C96.2886 20.9448 95.7919 21.4414 95.7919 22.054C95.7919 22.6667 96.2886 23.1633 96.9012 23.1633Z" fill="#E6E6E6"/>
<path d="M78.7068 101.718H83.2448V71.3837H78.7068V101.718Z" fill="#E6E6E6"/>
<path d="M79.9011 101.718H78.7068V97.5874H81.1513L79.9011 101.718Z" fill="#F0F0F0"/>
<path d="M115.558 101.718H120.096V71.3837H115.558V101.718Z" fill="#E6E6E6"/>
<path d="M78.7067 99.1834H116.598V71.3838H78.7067V99.1834Z" fill="#F0F0F0"/>
<path d="M79.6324 80.2363H115.673V72.6127H79.6324V80.2363Z" fill="#E6E6E6"/>
<path d="M86.7825 74.9828H107.73C108.892 74.9828 110.007 74.0438 110.808 72.3813H83.7049C84.5056 74.0438 85.6174 74.9828 86.7825 74.9828Z" fill="#F0F0F0"/>
<path d="M115.407 101.718H116.598V97.5874H114.154L115.407 101.718Z" fill="#F0F0F0"/>
<path d="M79.6324 89.0941H115.673V81.4705H79.6324V89.0941Z" fill="#E6E6E6"/>
<path d="M86.7825 83.8406H107.73C108.892 83.8406 110.007 82.8989 110.808 81.2391H83.7049C84.5056 82.8989 85.6174 83.8406 86.7825 83.8406Z" fill="#F0F0F0"/>
<path d="M79.6324 97.9518H115.673V90.3283H79.6324V97.9518Z" fill="#E6E6E6"/>
<path d="M86.7825 92.6957H107.73C108.892 92.6957 110.007 91.7541 110.808 90.0942H83.7049C84.5056 91.7541 85.6174 92.6957 86.7825 92.6957Z" fill="#F0F0F0"/>
<path d="M106.193 56.1739C105.474 53.756 114.42 41.6583 118.346 42.02C122.272 42.3818 115.37 57.057 113.25 58.3551C110.858 59.8208 106.975 58.8046 106.193 56.1739Z" fill="#F5F5F5"/>
<path d="M105.679 59.6611C105.333 58.4269 111.587 56.4186 114.071 57.8736C116.556 59.3286 111.483 63.0766 110.081 62.9063C108.483 62.7148 106.057 61.0044 105.679 59.6611Z" fill="#F5F5F5"/>
<path d="M113.276 58.5546C114.141 56.932 107.773 47.4544 104.378 47.2789C100.984 47.1033 105.344 58.1849 107.017 59.3207C108.908 60.6108 112.332 60.3182 113.276 58.5546Z" fill="#F5F5F5"/>
<path d="M110.012 53.5112H109.999C109.838 53.5087 109.681 53.5648 109.558 53.6689C109.434 53.7731 109.353 53.9183 109.329 54.0778C108.591 59.0782 108.502 64.1528 109.063 69.176C109.081 69.336 109.157 69.4837 109.277 69.5918C109.396 69.7 109.551 69.7611 109.712 69.7639H109.725C109.819 69.7652 109.912 69.7465 109.999 69.709C110.085 69.6715 110.162 69.616 110.225 69.5463C110.289 69.4766 110.336 69.3942 110.365 69.3047C110.394 69.2152 110.403 69.1205 110.393 69.027C109.858 64.1146 109.947 59.1543 110.656 54.264C110.669 54.1713 110.663 54.0767 110.636 53.9867C110.61 53.8967 110.565 53.8134 110.504 53.7421C110.443 53.6709 110.368 53.6135 110.283 53.5737C110.198 53.5339 110.106 53.5126 110.012 53.5112Z" fill="#EBEBEB"/>
<path d="M109.525 71.3811C111.877 71.3811 113.859 69.9979 114.34 68.1226C114.458 67.6218 114.626 67.1343 114.843 66.6676L114.88 66.5905H104.171L104.208 66.6676C104.425 67.1343 104.593 67.6218 104.711 68.1226C105.192 69.9979 107.177 71.3811 109.525 71.3811Z" fill="#FAFAFA"/>
<path d="M104.15 67.0613H114.912C115.213 67.0613 115.473 66.7687 115.548 66.3484C115.654 65.7446 115.34 65.1594 114.912 65.1594H104.15C103.721 65.1594 103.407 65.7446 103.517 66.3484C103.591 66.766 103.852 67.0613 104.15 67.0613Z" fill="#F0F0F0"/>
<path d="M70.9981 82.6089H57.7486V101.718H70.9981V82.6089Z" fill="#F0F0F0"/>
<path d="M18.346 101.718H57.7513V82.6089H18.346V101.718Z" fill="#F5F5F5"/>
<path d="M21.8067 97.4863H30.1378V89.0036H21.8067V97.4863Z" fill="#FAFAFA"/>
<path d="M33.117 97.4863H41.4481V89.0036H33.117V97.4863Z" fill="#FAFAFA"/>
<g style="mix-blend-mode:multiply" opacity="0.7">
<path d="M70.9981 84.6412H18.2051V85.7292H70.9981V84.6412Z" fill="#E6E6E6"/>
</g>
<path d="M71.7296 81.9493H57.7486V85.1014H71.7296V81.9493Z" fill="#F0F0F0"/>
<path d="M17.6145 85.0988H57.7513V81.9467H17.6145V85.0988Z" fill="#F5F5F5"/>
<path d="M28.9674 76.5841C28.9674 76.5841 29.2201 81.9493 38.8892 81.9493C48.5583 81.9493 48.811 76.5841 48.811 76.5841H28.9674Z" fill="#F0F0F0"/>
<path d="M28.9674 73.0303C28.9674 73.0303 29.2201 78.3956 38.8892 78.3956C48.5583 78.3956 48.811 73.0303 48.811 73.0303H28.9674Z" fill="#F0F0F0"/>
<path d="M66.5 113.731C94.984 113.731 118.075 112.383 118.075 110.72C118.075 109.057 94.984 107.709 66.5 107.709C38.0161 107.709 14.9253 109.057 14.9253 110.72C14.9253 112.383 38.0161 113.731 66.5 113.731Z" fill="#F5F5F5"/>
<path d="M50.8965 104.926H24.778V109.842H50.8965V104.926Z" fill="#B5B1FF"/>
<path opacity="0.2" d="M50.8965 104.926H24.778V105.485H50.8965V104.926Z" fill="black"/>
<path opacity="0.2" d="M27.7199 104.926H26.6904V109.842H27.7199V104.926Z" fill="black"/>
<path opacity="0.2" d="M30.082 104.926H29.0526V109.842H30.082V104.926Z" fill="black"/>
<path opacity="0.2" d="M32.4467 104.926H31.4173V109.842H32.4467V104.926Z" fill="black"/>
<path opacity="0.2" d="M34.8088 104.926H33.7794V109.842H34.8088V104.926Z" fill="black"/>
<path opacity="0.2" d="M37.1708 104.926H36.1414V109.842H37.1708V104.926Z" fill="black"/>
<path opacity="0.2" d="M39.5356 104.926H38.5062V109.842H39.5356V104.926Z" fill="black"/>
<path opacity="0.2" d="M41.8977 104.926H40.8683V109.842H41.8977V104.926Z" fill="black"/>
<path opacity="0.2" d="M44.2598 104.926H43.2303V109.842H44.2598V104.926Z" fill="black"/>
<path opacity="0.2" d="M46.6245 104.926H45.5951V109.842H46.6245V104.926Z" fill="black"/>
<path opacity="0.2" d="M48.9866 104.926H47.9572V109.842H48.9866V104.926Z" fill="black"/>
<path d="M49.8351 100.011H23.7166V104.926H49.8351V100.011Z" fill="#B5B1FF"/>
<path opacity="0.2" d="M49.8351 100.011H23.7166V100.569H49.8351V100.011Z" fill="black"/>
<path opacity="0.2" d="M26.6559 100.011H25.6265V104.926H26.6559V100.011Z" fill="black"/>
<path opacity="0.2" d="M29.0206 100.011H27.9912V104.926H29.0206V100.011Z" fill="black"/>
<path opacity="0.2" d="M31.3827 100.011H30.3533V104.926H31.3827V100.011Z" fill="black"/>
<path opacity="0.2" d="M33.7448 100.011H32.7153V104.926H33.7448V100.011Z" fill="black"/>
<path opacity="0.2" d="M36.1095 100.011H35.0801V104.926H36.1095V100.011Z" fill="black"/>
<path opacity="0.2" d="M38.4716 100.011H37.4422V104.926H38.4716V100.011Z" fill="black"/>
<path opacity="0.2" d="M40.8337 100.011H39.8043V104.926H40.8337V100.011Z" fill="black"/>
<path opacity="0.2" d="M43.1984 100.011H42.169V104.926H43.1984V100.011Z" fill="black"/>
<path opacity="0.2" d="M45.5605 100.011H44.5311V104.926H45.5605V100.011Z" fill="black"/>
<path opacity="0.2" d="M47.9226 100.011H46.8931V104.926H47.9226V100.011Z" fill="black"/>
<path d="M49.0823 95.095H22.9638V100.011H49.0823V95.095Z" fill="#B5B1FF"/>
<path opacity="0.2" d="M49.0823 95.095H22.9638V95.6536H49.0823V95.095Z" fill="black"/>
<path opacity="0.2" d="M25.9058 95.095H24.8763V100.011H25.9058V95.095Z" fill="black"/>
<path opacity="0.2" d="M28.2678 95.095H27.2384V100.011H28.2678V95.095Z" fill="black"/>
<path opacity="0.2" d="M30.6326 95.095H29.6032V100.011H30.6326V95.095Z" fill="black"/>
<path opacity="0.2" d="M32.9947 95.095H31.9653V100.011H32.9947V95.095Z" fill="black"/>
<path opacity="0.2" d="M35.3567 95.095H34.3273V100.011H35.3567V95.095Z" fill="black"/>
<path opacity="0.2" d="M37.7215 95.095H36.6921V100.011H37.7215V95.095Z" fill="black"/>
<path opacity="0.2" d="M40.0836 95.095H39.0541V100.011H40.0836V95.095Z" fill="black"/>
<path opacity="0.2" d="M42.4457 95.095H41.4163V100.011H42.4457V95.095Z" fill="black"/>
<path opacity="0.2" d="M44.8104 95.095H43.7809V100.011H44.8104V95.095Z" fill="black"/>
<path opacity="0.2" d="M47.1725 95.095H46.1431V100.011H47.1725V95.095Z" fill="black"/>
<path d="M50.2661 90.182H24.1475V95.0977H50.2661V90.182Z" fill="#B5B1FF"/>
<path opacity="0.2" d="M50.2661 90.182H24.1475V90.7406H50.2661V90.182Z" fill="black"/>
<path opacity="0.2" d="M27.0868 90.182H26.0574V95.0977H27.0868V90.182Z" fill="black"/>
<path opacity="0.2" d="M29.4515 90.182H28.4221V95.0977H29.4515V90.182Z" fill="black"/>
<path opacity="0.2" d="M31.8136 90.182H30.7842V95.0977H31.8136V90.182Z" fill="black"/>
<path opacity="0.2" d="M34.1757 90.182H33.1462V95.0977H34.1757V90.182Z" fill="black"/>
<path opacity="0.2" d="M36.5405 90.182H35.511V95.0977H36.5405V90.182Z" fill="black"/>
<path opacity="0.2" d="M38.9025 90.182H37.8731V95.0977H38.9025V90.182Z" fill="black"/>
<path opacity="0.2" d="M41.2646 90.182H40.2352V95.0977H41.2646V90.182Z" fill="black"/>
<path opacity="0.2" d="M43.6293 90.182H42.5999V95.0977H43.6293V90.182Z" fill="black"/>
<path opacity="0.2" d="M45.9915 90.182H44.962V95.0977H45.9915V90.182Z" fill="black"/>
<path opacity="0.2" d="M48.3535 90.182H47.3241V95.0977H48.3535V90.182Z" fill="black"/>
<path d="M23.001 90.1793H49.1196V85.2636H23.001V90.1793Z" fill="#B5B1FF"/>
<path opacity="0.2" d="M23.001 85.8223H49.1196V85.2637H23.001V85.8223Z" fill="black"/>
<path opacity="0.2" d="M46.1776 90.1793H47.207V85.2636H46.1776V90.1793Z" fill="black"/>
<path opacity="0.2" d="M43.8129 90.1793H44.8423V85.2636H43.8129V90.1793Z" fill="black"/>
<path opacity="0.2" d="M41.4508 90.1793H42.4802V85.2636H41.4508V90.1793Z" fill="black"/>
<path opacity="0.2" d="M39.0887 90.1793H40.1182V85.2636H39.0887V90.1793Z" fill="black"/>
<path opacity="0.2" d="M36.724 90.1793H37.7534V85.2636H36.724V90.1793Z" fill="black"/>
<path opacity="0.2" d="M34.3619 90.1793H35.3913V85.2636H34.3619V90.1793Z" fill="black"/>
<path opacity="0.2" d="M31.9998 90.1793H33.0292V85.2636H31.9998V90.1793Z" fill="black"/>
<path opacity="0.2" d="M29.6351 90.1793H30.6645V85.2636H29.6351V90.1793Z" fill="black"/>
<path opacity="0.2" d="M27.273 90.1793H28.3024V85.2636H27.273V90.1793Z" fill="black"/>
<path opacity="0.2" d="M24.9109 90.1793H25.9404V85.2636H24.9109V90.1793Z" fill="black"/>
<path d="M24.0624 85.2663H50.181V80.3506H24.0624V85.2663Z" fill="#B5B1FF"/>
<path opacity="0.2" d="M24.0624 80.9092H50.181V80.3506H24.0624V80.9092Z" fill="black"/>
<path opacity="0.2" d="M47.239 85.2663H48.2684V80.3506H47.239V85.2663Z" fill="black"/>
<path opacity="0.2" d="M44.8796 85.2663H45.909V80.3506H44.8796V85.2663Z" fill="black"/>
<path opacity="0.2" d="M42.5148 85.2663H43.5443V80.3506H42.5148V85.2663Z" fill="black"/>
<path opacity="0.2" d="M40.15 85.2663H41.1794V80.3506H40.15V85.2663Z" fill="black"/>
<path opacity="0.2" d="M37.7906 85.2663H38.8201V80.3506H37.7906V85.2663Z" fill="black"/>
<path opacity="0.2" d="M35.426 85.2663H36.4554V80.3506H35.426V85.2663Z" fill="black"/>
<path opacity="0.2" d="M33.0612 85.2663H34.0906V80.3506H33.0612V85.2663Z" fill="black"/>
<path opacity="0.2" d="M30.7018 85.2663H31.7312V80.3506H30.7018V85.2663Z" fill="black"/>
<path opacity="0.2" d="M28.337 85.2663H29.3664V80.3506H28.337V85.2663Z" fill="black"/>
<path opacity="0.2" d="M25.9723 85.2663H27.0017V80.3506H25.9723V85.2663Z" fill="black"/>
<path d="M24.8151 80.3506H50.9337V75.435H24.8151V80.3506Z" fill="#B5B1FF"/>
<path opacity="0.2" d="M24.8151 75.9936H50.9337V75.435H24.8151V75.9936Z" fill="black"/>
<path opacity="0.2" d="M47.9918 80.3506H49.0212V75.435H47.9918V80.3506Z" fill="black"/>
<path opacity="0.2" d="M45.627 80.3506H46.6564V75.435H45.627V80.3506Z" fill="black"/>
<path opacity="0.2" d="M43.2649 80.3506H44.2943V75.435H43.2649V80.3506Z" fill="black"/>
<path opacity="0.2" d="M40.9028 80.3506H41.9323V75.435H40.9028V80.3506Z" fill="black"/>
<path opacity="0.2" d="M38.5381 80.3506H39.5675V75.435H38.5381V80.3506Z" fill="black"/>
<path opacity="0.2" d="M36.176 80.3506H37.2054V75.435H36.176V80.3506Z" fill="black"/>
<path opacity="0.2" d="M33.814 80.3506H34.8434V75.435H33.814V80.3506Z" fill="black"/>
<path opacity="0.2" d="M31.4492 80.3506H32.4786V75.435H31.4492V80.3506Z" fill="black"/>
<path opacity="0.2" d="M29.0871 80.3506H30.1165V75.435H29.0871V80.3506Z" fill="black"/>
<path opacity="0.2" d="M26.725 80.3506H27.7545V75.435H26.725V80.3506Z" fill="black"/>
<path d="M23.6315 75.4349H49.75V70.5193H23.6315V75.4349Z" fill="#B5B1FF"/>
<path opacity="0.2" d="M23.6315 71.0779H49.75V70.5193H23.6315V71.0779Z" fill="black"/>
<path opacity="0.2" d="M46.808 75.4349H47.8375V70.5193H46.808V75.4349Z" fill="black"/>
<path opacity="0.2" d="M44.4486 75.4349H45.478V70.5193H44.4486V75.4349Z" fill="black"/>
<path opacity="0.2" d="M42.0839 75.4349H43.1133V70.5193H42.0839V75.4349Z" fill="black"/>
<path opacity="0.2" d="M39.7192 75.4349H40.7486V70.5193H39.7192V75.4349Z" fill="black"/>
<path opacity="0.2" d="M37.3597 75.4349H38.3892V70.5193H37.3597V75.4349Z" fill="black"/>
<path opacity="0.2" d="M34.995 75.4349H36.0244V70.5193H34.995V75.4349Z" fill="black"/>
<path opacity="0.2" d="M32.6302 75.4349H33.6597V70.5193H32.6302V75.4349Z" fill="black"/>
<path opacity="0.2" d="M30.2708 75.4349H31.3002V70.5193H30.2708V75.4349Z" fill="black"/>
<path opacity="0.2" d="M27.9061 75.4349H28.9355V70.5193H27.9061V75.4349Z" fill="black"/>
<path opacity="0.2" d="M25.5413 75.4349H26.5707V70.5193H25.5413V75.4349Z" fill="black"/>
<path d="M106.576 51.072L96.159 52.8569C95.9586 52.8906 95.7728 52.9832 95.6252 53.1228C95.4775 53.2625 95.3748 53.4429 95.33 53.6411C95.2852 53.8393 95.3004 54.0464 95.3737 54.2359C95.447 54.4255 95.575 54.589 95.7414 54.7056L97.6619 56.0648L85.8861 72.7111C85.8095 72.8193 85.7123 72.9114 85.6001 72.982C85.4879 73.0527 85.3629 73.1005 85.2322 73.1227C85.1015 73.1449 84.9677 73.1412 84.8384 73.1116C84.7092 73.0821 84.587 73.0273 84.479 72.9505L67.1703 60.7145C66.9511 60.5602 66.6797 60.499 66.4155 60.5444C66.1512 60.5897 65.9157 60.7379 65.7605 60.9566L30.8693 110.273H43.4086L68.2077 75.2168C68.2843 75.1086 68.3815 75.0165 68.4937 74.9459C68.6059 74.8753 68.7309 74.8275 68.8616 74.8052C68.9924 74.783 69.1262 74.7867 69.2554 74.8163C69.3847 74.8458 69.5068 74.9006 69.6149 74.9774L86.9235 87.2134C87.0319 87.2902 87.1544 87.3448 87.284 87.3742C87.4136 87.4036 87.5476 87.4071 87.6786 87.3846C87.8095 87.3622 87.9347 87.3141 88.0471 87.2432C88.1594 87.1723 88.2567 87.0799 88.3333 86.9714L106.02 61.9674L107.943 63.3266C108.109 63.4409 108.304 63.5038 108.506 63.5078C108.707 63.5117 108.905 63.4563 109.075 63.3486C109.245 63.2409 109.38 63.0856 109.462 62.9019C109.545 62.7183 109.571 62.5145 109.539 62.3158L107.751 51.8993C107.703 51.6346 107.553 51.3995 107.333 51.2447C107.113 51.0899 106.841 51.0278 106.576 51.072Z" fill="#407BFF"/>
<path opacity="0.2" d="M106.576 51.072L96.159 52.8569C95.9586 52.8906 95.7728 52.9832 95.6252 53.1228C95.4775 53.2625 95.3748 53.4429 95.33 53.6411C95.2852 53.8393 95.3004 54.0464 95.3737 54.2359C95.447 54.4255 95.575 54.589 95.7414 54.7056L97.6619 56.0648L85.8861 72.7111C85.8095 72.8193 85.7124 72.9114 85.6001 72.982C85.4879 73.0527 85.3629 73.1005 85.2322 73.1227C85.1015 73.1449 84.9677 73.1412 84.8384 73.1116C84.7092 73.0821 84.587 73.0273 84.479 72.9505L67.1703 60.7145C66.9511 60.5602 66.6797 60.499 66.4155 60.5444C66.1512 60.5897 65.9157 60.7379 65.7605 60.9566L30.8693 110.273H43.4086L68.2077 75.2168C68.2843 75.1086 68.3815 75.0165 68.4937 74.9459C68.6059 74.8753 68.7309 74.8275 68.8616 74.8052C68.9924 74.783 69.1262 74.7867 69.2554 74.8163C69.3847 74.8458 69.5068 74.9006 69.6149 74.9774L86.9235 87.2134C87.0319 87.2902 87.1544 87.3448 87.284 87.3742C87.4136 87.4036 87.5477 87.4071 87.6786 87.3846C87.8095 87.3622 87.9347 87.3141 88.0471 87.2432C88.1594 87.1723 88.2567 87.0799 88.3333 86.9714L106.02 61.9674L107.943 63.3266C108.109 63.4409 108.304 63.5038 108.506 63.5078C108.707 63.5117 108.905 63.4563 109.075 63.3486C109.245 63.2409 109.38 63.0856 109.462 62.9019C109.545 62.7183 109.571 62.5145 109.539 62.3158L107.751 51.8993C107.703 51.6346 107.553 51.3995 107.333 51.2447C107.113 51.0899 106.841 51.0278 106.576 51.072Z" fill="black"/>
<path opacity="0.2" d="M42.6239 108.823H33.798C33.7858 108.823 33.774 108.819 33.7637 108.813C33.7535 108.806 33.7451 108.797 33.7395 108.786C33.7332 108.776 33.7298 108.764 33.7298 108.751C33.7298 108.739 33.7332 108.727 33.7395 108.717L66.0638 63.0181C66.1449 62.9017 66.2481 62.8025 66.3675 62.7261C66.487 62.6498 66.6204 62.5977 66.76 62.573C66.8997 62.5483 67.0428 62.5514 67.1812 62.5821C67.3196 62.6128 67.4506 62.6706 67.5667 62.7521L84.8727 74.9881C84.9744 75.0618 85.0898 75.1145 85.2121 75.1431C85.3345 75.1717 85.4613 75.1755 85.5852 75.1545C85.709 75.1334 85.8274 75.0879 85.9335 75.0205C86.0395 74.9531 86.131 74.8652 86.2027 74.762L99.6915 55.6951L97.5635 54.1815C97.5521 54.1745 97.5434 54.1639 97.5386 54.1514C97.5338 54.139 97.5332 54.1252 97.5369 54.1124C97.5399 54.0997 97.5465 54.0881 97.5559 54.0791C97.5654 54.0701 97.5773 54.0641 97.5901 54.0618L106.368 52.5589C106.377 52.5574 106.385 52.5576 106.393 52.5595C106.402 52.5613 106.41 52.5649 106.417 52.5698C106.424 52.5748 106.429 52.5811 106.434 52.5883C106.438 52.5956 106.441 52.6037 106.443 52.6121L107.946 61.3901C107.947 61.4032 107.946 61.4166 107.941 61.4288C107.935 61.4411 107.927 61.4516 107.916 61.4593C107.905 61.4664 107.892 61.4702 107.879 61.4702C107.866 61.4702 107.853 61.4664 107.842 61.4593L105.714 59.9458L88.0647 84.8966C87.9836 85.0125 87.8805 85.1114 87.7613 85.1876C87.642 85.2637 87.5089 85.3156 87.3696 85.3403C87.2303 85.365 87.0875 85.362 86.9494 85.3315C86.8112 85.301 86.6804 85.2436 86.5644 85.1626L69.2558 72.9266C69.1545 72.8549 69.0401 72.8039 68.9191 72.7765C68.7981 72.7491 68.6729 72.7458 68.5506 72.7668C68.4283 72.7878 68.3114 72.8327 68.2065 72.8989C68.1015 72.9651 68.0107 73.0513 67.9391 73.1527L42.6798 108.794C42.6734 108.803 42.6651 108.81 42.6554 108.815C42.6456 108.82 42.6349 108.823 42.6239 108.823ZM33.9257 108.69H42.5893L67.7901 73.0649C67.9543 72.8305 68.2048 72.6708 68.4866 72.6209C68.7683 72.571 69.0584 72.635 69.293 72.7989L86.6017 85.0349C86.7029 85.1065 86.8174 85.1575 86.9384 85.185C87.0594 85.2124 87.1846 85.2157 87.3069 85.1947C87.4291 85.1737 87.5461 85.1288 87.651 85.0626C87.7559 84.9964 87.8468 84.9101 87.9184 84.8088L105.605 59.8048C105.609 59.7973 105.615 59.7911 105.623 59.7864C105.63 59.7818 105.639 59.779 105.647 59.7782C105.655 59.7744 105.664 59.7724 105.673 59.7724C105.681 59.7724 105.69 59.7744 105.698 59.7782L107.759 61.2359L106.294 52.7212L97.7524 54.1842L99.8139 55.6419C99.8276 55.6524 99.837 55.6675 99.8405 55.6844C99.8471 55.7006 99.8471 55.7188 99.8405 55.735L86.3144 74.8577C86.2332 74.9735 86.1298 75.072 86.0101 75.1473C85.8905 75.2227 85.757 75.2735 85.6175 75.2966C85.338 75.343 85.0516 75.2781 84.8195 75.1157L67.5135 62.8797C67.4118 62.806 67.2964 62.7533 67.174 62.7247C67.0517 62.6961 66.9249 62.6923 66.801 62.7133C66.6771 62.7344 66.5587 62.7799 66.4527 62.8473C66.3467 62.9147 66.2551 63.0026 66.1835 63.1058L33.9257 108.69Z" fill="white"/>
<path d="M92.5813 93.5761H91.488V109.842H92.5813V93.5761Z" fill="#263238"/>
<path d="M102.147 84.713H101.053V109.842H102.147V84.713Z" fill="#263238"/>
<path d="M111.888 90.7406H110.794V109.842H111.888V90.7406Z" fill="#263238"/>
<path d="M91.4907 93.5761H83.8246V109.842H91.4907V93.5761Z" fill="#B5B1FF"/>
<path opacity="0.2" d="M83.8246 93.5761V103.221L87.655 93.5761H83.8246Z" fill="white"/>
<path d="M101.053 84.713H93.3873V109.842H101.053V84.713Z" fill="#FF0066"/>
<path opacity="0.2" d="M93.3873 84.713V94.3582L97.2204 84.713H93.3873Z" fill="white"/>
<path d="M110.797 90.7406H103.131V109.842H110.797V90.7406Z" fill="#B5B1FF"/>
<path opacity="0.2" d="M103.131 90.7406V99.3244L106.964 90.7406H103.131Z" fill="white"/>
<path d="M65.9893 108.512L63.9332 108.126L64.2816 103.261L66.3378 103.65L65.9893 108.512Z" fill="#7F3E3B"/>
<path d="M79.8266 108.456H77.7332L77.2145 103.612H79.3052L79.8266 108.456Z" fill="#7F3E3B"/>
<path d="M77.5629 108.214H80.1112C80.1528 108.214 80.1931 108.229 80.2255 108.255C80.2578 108.281 80.2804 108.317 80.2894 108.358L80.7044 110.22C80.714 110.265 80.7132 110.312 80.7023 110.357C80.6913 110.402 80.6703 110.444 80.6409 110.479C80.6116 110.515 80.5745 110.544 80.5326 110.563C80.4906 110.583 80.4448 110.593 80.3985 110.592C79.5766 110.579 78.9781 110.528 77.946 110.528C77.3102 110.528 75.3924 110.595 74.5146 110.595C73.6368 110.595 73.5224 109.728 73.8815 109.648C75.4935 109.297 76.7064 108.81 77.2225 108.347C77.3154 108.262 77.4368 108.214 77.5629 108.214Z" fill="#263238"/>
<path d="M63.9757 107.674L66.2287 108.062C66.2695 108.07 66.3066 108.09 66.3342 108.121C66.3617 108.152 66.378 108.191 66.3803 108.233L66.4708 110.135C66.4731 110.181 66.465 110.226 66.4471 110.269C66.4293 110.311 66.4021 110.349 66.3675 110.379C66.333 110.41 66.2921 110.432 66.2478 110.445C66.2035 110.457 66.157 110.459 66.1117 110.451C65.3137 110.297 64.1353 110.047 63.1165 109.871C61.9222 109.666 61.3396 109.518 59.9405 109.275C59.0946 109.129 59.2781 108.211 59.6479 108.188C61.321 108.113 61.9115 108.368 63.4517 107.749C63.616 107.675 63.7975 107.65 63.9757 107.674Z" fill="#263238"/>
<path d="M71.1391 44.4459C71.0673 44.6587 71.0114 44.813 70.9449 44.9779C70.8784 45.1428 70.8119 45.3184 70.7427 45.486C70.6044 45.8238 70.4581 46.1536 70.3038 46.4835C69.9957 47.1454 69.6503 47.7893 69.2691 48.412C68.4893 49.7441 67.4734 50.923 66.2713 51.8913C65.9366 52.1465 65.5806 52.3725 65.2073 52.5669C65.1115 52.6201 65.0131 52.6653 64.912 52.7105C64.8109 52.7558 64.7205 52.7983 64.6008 52.8435C64.365 52.9303 64.122 52.9962 63.8746 53.0404C63.4729 53.1081 63.0664 53.1428 62.659 53.1441C62.276 53.1441 61.9089 53.1441 61.5471 53.1095C60.1361 52.997 58.7397 52.7439 57.3789 52.3541L57.589 50.798C58.919 50.7475 60.2677 50.7049 61.5338 50.5932C61.8504 50.5639 62.1616 50.5267 62.4568 50.4815C62.7272 50.4448 62.9941 50.386 63.2548 50.3059C63.34 50.2816 63.4221 50.2477 63.4996 50.2048C63.5873 50.1516 63.707 50.1011 63.8055 50.0319C64.0223 49.8952 64.2277 49.7413 64.4199 49.5717C64.8442 49.1954 65.2268 48.7745 65.5611 48.3162C65.9253 47.8302 66.2576 47.3211 66.5559 46.792C66.8671 46.26 67.1464 45.6935 67.4204 45.1242C67.5534 44.8396 67.6864 44.5497 67.8034 44.2597L67.9817 43.8261L68.1439 43.4165L71.1391 44.4459Z" fill="#7F3E3B"/>
<path d="M70.1309 41.9934C73.948 41.9934 69.7532 50.2394 69.7532 50.2394L64.8828 48.2684C64.8828 48.2684 66.2128 45.4009 67.0879 43.7597C67.3713 43.2036 67.8092 42.7412 68.349 42.4279C68.8888 42.1146 69.5075 41.9637 70.1309 41.9934Z" fill="#407BFF"/>
<g opacity="0.3">
<path opacity="0.3" d="M70.1309 41.9934C73.948 41.9934 69.7532 50.2394 69.7532 50.2394L64.8828 48.2684C64.8828 48.2684 66.2128 45.4009 67.0879 43.7597C67.3713 43.2036 67.8092 42.7412 68.349 42.4279C68.8888 42.1146 69.5075 41.9637 70.1309 41.9934Z" fill="white"/>
</g>
<path opacity="0.2" d="M69.1973 44.6588C67.8008 45.6403 66.8299 47.4624 66.5532 48.9414L69.3356 50.0692C69.841 49.3137 70.3331 48.4227 70.8757 47.6406C71.0247 47.2336 71.171 46.8054 71.2987 46.3718L69.1973 44.6588Z" fill="black"/>
<path d="M58.786 50.9975L57.1129 50.0532L55.8307 52.4472C56.5713 52.5725 57.3291 52.5536 58.0625 52.3914L58.786 50.9975Z" fill="#7F3E3B"/>
<path d="M55.5115 50.0532L54.5805 52.1653L55.8201 52.4552L57.1022 50.0532H55.5115Z" fill="#7F3E3B"/>
<path opacity="0.2" d="M64.2816 103.264L64.1034 105.77L66.1596 106.155L66.3378 103.65L64.2816 103.264Z" fill="black"/>
<path opacity="0.2" d="M79.3053 103.615H77.2119L77.4832 106.113H79.5739L79.3053 103.615Z" fill="black"/>
<path d="M80.5395 42.9058C79.9261 45.1635 79.4815 47.4636 79.2095 49.7872C79.01 51.4072 78.8929 52.9526 78.8184 54.3571C78.6429 57.6449 78.7174 60.1506 78.6189 61.0071C76.983 60.8954 70.8198 60.4751 67.447 60.2304C65.9281 48.3322 68.8302 42.2036 68.8302 42.2036C69.7092 42.0383 70.5975 41.9273 71.4902 41.8711C71.679 41.8711 71.8732 41.8525 72.0674 41.8498C73.6542 41.8684 75.2387 41.9785 76.8128 42.1796C77.1107 42.2142 77.414 42.2594 77.7066 42.3073C79.2254 42.5414 80.5395 42.9058 80.5395 42.9058Z" fill="#407BFF"/>
<g opacity="0.3">
<path opacity="0.3" d="M80.5395 42.9058C79.9261 45.1635 79.4815 47.4636 79.2095 49.7872C79.01 51.4072 78.8929 52.9526 78.8184 54.3571C78.6429 57.6449 78.7174 60.1506 78.6189 61.0071C76.983 60.8954 70.8198 60.4751 67.447 60.2304C65.9281 48.3322 68.8302 42.2036 68.8302 42.2036C69.7092 42.0383 70.5975 41.9273 71.4902 41.8711C71.679 41.8711 71.8732 41.8525 72.0674 41.8498C73.6542 41.8684 75.2387 41.9785 76.8128 42.1796C77.1107 42.2142 77.414 42.2594 77.7066 42.3073C79.2254 42.5414 80.5395 42.9058 80.5395 42.9058Z" fill="white"/>
</g>
<path opacity="0.2" d="M77.7225 45.9169C77.7012 47.629 78.1811 49.31 79.1031 50.7528C79.135 50.4336 79.1722 50.1117 79.2121 49.7872C79.3611 48.5689 79.5526 47.3081 79.8053 46.034L77.7225 45.9169Z" fill="black"/>
<path d="M76.7384 36.7958C76.3341 38.304 75.8393 41.0784 76.8368 42.1716C76.3324 42.6293 75.7355 42.9732 75.0866 43.1802C74.4377 43.3871 73.7519 43.4523 73.0756 43.3713C71.7642 43.2516 71.7642 42.3286 72.0914 41.8418C73.8231 41.5545 73.8656 40.2884 73.6528 39.0807L76.7384 36.7958Z" fill="#7F3E3B"/>
<path d="M72.1153 43.8687C72.1461 44.1035 72.2014 44.3344 72.2802 44.5576C72.3028 44.6288 72.3475 44.6908 72.4078 44.7348C72.468 44.7788 72.5408 44.8025 72.6154 44.8024C72.8339 44.7992 73.0523 44.8179 73.2671 44.8582C73.3123 44.8688 73.3593 44.87 73.405 44.8618C73.4508 44.8536 73.4944 44.8361 73.5331 44.8103C73.7991 44.6428 74.1396 44.3954 74.0518 44.0868C73.948 43.7251 73.3256 43.3979 73.3256 43.3979C73.3256 43.3979 72.2563 43.6612 72.1153 43.8687Z" fill="#263238"/>
<path d="M72.6765 44.5576C72.2483 45.4939 71.2587 51.4896 71.1364 52.3966C71.014 53.3037 71.4316 54.7667 72.0115 55.9291C72.6781 55.015 73.0577 53.9234 73.1021 52.793C73.1793 51.5534 73.2538 44.7066 73.2538 44.7066L72.6765 44.5576Z" fill="#263238"/>
<path d="M73.3176 43.3979C73.7136 43.7282 74.0408 44.1331 74.2805 44.5896C74.9535 44.5364 77.9247 43.233 77.5018 42.2275C77.1321 42.1238 76.8075 41.911 76.7038 42.02C76.5628 42.2355 75.302 42.9962 73.3176 43.3979Z" fill="white"/>
<path d="M73.3176 43.3979C73.3176 43.3979 72.1765 43.7836 71.9105 44.4326C71.2216 44.1267 70.8465 42.7462 71.4556 41.8391C71.836 41.8072 72.2004 41.6183 72.2696 41.7433C72.376 41.9801 72.0861 42.6158 73.3176 43.3979Z" fill="white"/>
<path opacity="0.2" d="M75.4802 37.7294L73.6528 39.0781C73.7079 39.3594 73.7373 39.6452 73.7405 39.9319C74.3976 39.884 75.3365 39.2323 75.4589 38.5567C75.5168 38.2846 75.5241 38.0041 75.4802 37.7294Z" fill="black"/>
<path d="M72.3068 31.9519C71.5088 32.2658 71.2136 35.354 72.8388 35.0508C74.4641 34.7475 73.9135 31.3215 72.3068 31.9519Z" fill="#263238"/>
<path d="M77.5763 35.0402C76.9246 37.0112 76.6453 38.1976 75.3631 38.961C73.432 40.1075 71.2003 38.5381 71.2481 36.4127C71.2907 34.5002 72.3467 31.5955 74.5199 31.3162C74.9984 31.2514 75.4855 31.3101 75.9349 31.4868C76.3842 31.6634 76.7809 31.9521 77.0873 32.3253C77.3936 32.6985 77.5993 33.1439 77.6849 33.6191C77.7705 34.0943 77.7331 34.5835 77.5763 35.0402Z" fill="#7F3E3B"/>
<path d="M76.8368 36.3968C76.0096 36.4127 75.3313 33.907 76.9991 33.2048C75.685 33.0531 71.6498 33.2739 70.9263 31.4704C70.2028 29.667 73.0091 29.3877 73.964 30.0686C73.6608 29.0764 74.895 27.6134 77.1135 28.9434C79.3319 30.2734 79.3053 31.9147 79.0978 32.4014C80.0873 32.6674 80.2815 34.8699 79.1883 35.1652C79.8293 36.0536 79.276 37.9209 77.547 37.5219C77.4885 38.6099 76.2756 38.1337 76.35 37.2985C76.4245 36.4633 76.8368 36.3968 76.8368 36.3968Z" fill="#263238"/>
<path d="M73.1501 36.8782C73.3839 36.9466 73.6307 36.9582 73.8699 36.9119C74.1091 36.8657 74.3338 36.7629 74.5253 36.6122C74.5352 36.6019 74.5407 36.588 74.5407 36.5737C74.5407 36.5593 74.5352 36.5455 74.5253 36.5351C74.5153 36.5254 74.502 36.5199 74.488 36.5199C74.4741 36.5199 74.4608 36.5254 74.4508 36.5351C74.274 36.6769 74.0662 36.7748 73.8443 36.8211C73.6224 36.8673 73.3927 36.8604 73.174 36.8011C73.1674 36.7991 73.1604 36.7985 73.1535 36.7993C73.1466 36.8001 73.14 36.8024 73.134 36.8059C73.128 36.8093 73.1228 36.814 73.1187 36.8196C73.1146 36.8252 73.1117 36.8316 73.1102 36.8383C73.1121 36.8482 73.1169 36.8573 73.124 36.8644C73.1311 36.8715 73.1402 36.8763 73.1501 36.8782Z" fill="#263238"/>
<path d="M77.9886 37.1309C77.6063 37.4876 77.0987 37.6789 76.5761 37.6629C75.8845 37.6337 75.7515 36.9634 76.1212 36.4234C76.4564 35.9366 77.2172 35.3594 77.8236 35.6546C77.9556 35.7208 78.0688 35.8189 78.1532 35.94C78.2376 36.0611 78.2904 36.2014 78.3067 36.348C78.3231 36.4947 78.3026 36.6431 78.247 36.7799C78.1915 36.9166 78.1026 37.0373 77.9886 37.1309Z" fill="#7F3E3B"/>
<path d="M63.4091 104.958L66.8671 105.775C66.8671 105.775 68.0907 92.302 69.1414 84.8992C69.4207 82.9362 69.8516 80.1751 70.5086 77.2331C71.3359 73.5277 72.3706 69.5191 73.2271 66.3803C74.1236 63.0739 74.8072 60.7358 74.8072 60.7358L67.4709 60.2224C67.4709 60.2224 63.4995 77.539 63.0793 83.8964C62.6297 90.5304 63.4091 104.958 63.4091 104.958Z" fill="#263238"/>
<path opacity="0.2" d="M70.49 77.2331C71.3173 73.5277 72.352 69.5191 73.2085 66.3803L72.4451 64.7391C70.6336 66.9017 70.1442 73.5969 70.49 77.2331Z" fill="black"/>
<path d="M71.4184 60.499C71.4184 60.499 72.2164 78.4061 73.0942 84.4709C74.0598 91.1209 76.515 105.629 76.515 105.629H80.348C80.348 105.629 79.284 91.8312 78.5632 85.3275C77.7412 77.9194 78.619 61.0018 78.619 61.0018L71.4184 60.499Z" fill="#263238"/>
<path d="M76.0574 105.711H80.5688L80.7683 104.362L75.7888 104.275L76.0574 105.711Z" fill="#407BFF"/>
<path d="M63.1884 105.19L67.1172 105.929L67.5614 104.559L63.082 103.711L63.1884 105.19Z" fill="#407BFF"/>
<path d="M74.5466 34.8832C74.5013 35.0455 74.3816 35.1492 74.2806 35.128C74.1795 35.1067 74.121 34.9444 74.1635 34.7821C74.2061 34.6199 74.3284 34.5161 74.4295 34.5374C74.5306 34.5587 74.5891 34.721 74.5466 34.8832Z" fill="#263238"/>
<path d="M72.7005 34.3991C72.6579 34.5613 72.5356 34.6651 72.4345 34.6411C72.3334 34.6172 72.2776 34.4602 72.3201 34.2953C72.3627 34.1304 72.485 34.0293 72.5861 34.0506C72.6872 34.0719 72.743 34.2342 72.7005 34.3991Z" fill="#263238"/>
<path d="M73.1101 34.5507C72.7837 34.998 72.398 35.3989 71.9637 35.7424C72.1791 36.0855 72.7351 36.0563 72.7351 36.0563L73.1101 34.5507Z" fill="#630F0F"/>
<path d="M75.1184 34.3539C75.0999 34.3527 75.0821 34.3464 75.0671 34.3356C75.052 34.3247 75.0403 34.3099 75.0333 34.2927C74.9884 34.1765 74.9169 34.0724 74.8245 33.9888C74.7321 33.9052 74.6214 33.8444 74.5013 33.8112C74.4886 33.8088 74.4764 33.8039 74.4656 33.7967C74.4547 33.7896 74.4454 33.7804 74.4381 33.7696C74.4308 33.7589 74.4257 33.7468 74.4231 33.7341C74.4205 33.7214 74.4204 33.7083 74.4228 33.6955C74.4253 33.6828 74.4302 33.6706 74.4374 33.6598C74.4445 33.649 74.4537 33.6396 74.4645 33.6323C74.4752 33.625 74.4873 33.62 74.5 33.6173C74.5127 33.6147 74.5258 33.6146 74.5386 33.6171C74.691 33.656 74.832 33.7308 74.9495 33.8354C75.0671 33.94 75.1579 34.0713 75.2142 34.2182C75.2194 34.2303 75.2222 34.2432 75.2223 34.2563C75.2225 34.2694 75.22 34.2825 75.215 34.2946C75.2101 34.3067 75.2028 34.3178 75.1935 34.327C75.1842 34.3363 75.1732 34.3436 75.161 34.3486C75.1474 34.3536 75.1329 34.3555 75.1184 34.3539Z" fill="#263238"/>
<path d="M71.9211 33.4734C71.9006 33.4711 71.8811 33.4627 71.8652 33.4495C71.8558 33.4403 71.8484 33.4294 71.8432 33.4173C71.8381 33.4052 71.8355 33.3922 71.8355 33.379C71.8355 33.3659 71.8381 33.3529 71.8432 33.3408C71.8484 33.3287 71.8558 33.3177 71.8652 33.3085C71.9648 33.1867 72.0921 33.0905 72.2365 33.028C72.3809 32.9655 72.5382 32.9386 72.6952 32.9494C72.7208 32.954 72.7437 32.968 72.7595 32.9887C72.7753 33.0094 72.7827 33.0352 72.7803 33.0611C72.7763 33.087 72.7624 33.1104 72.7416 33.1263C72.7208 33.1422 72.6946 33.1493 72.6686 33.1463C72.5442 33.1406 72.4203 33.1641 72.3067 33.215C72.1931 33.2658 72.0929 33.3424 72.0142 33.4389C72.003 33.4521 71.9885 33.4623 71.9722 33.4684C71.9559 33.4744 71.9383 33.4762 71.9211 33.4734Z" fill="#263238"/>
<path d="M76.874 108.581C76.7311 108.592 76.5887 108.555 76.4697 108.475C76.432 108.442 76.403 108.401 76.3853 108.355C76.3677 108.308 76.3619 108.258 76.3686 108.209C76.3679 108.18 76.3755 108.152 76.3907 108.127C76.4058 108.102 76.4277 108.083 76.4537 108.07C76.6851 107.951 77.3581 108.366 77.4353 108.414C77.4433 108.418 77.4497 108.426 77.4536 108.434C77.4574 108.443 77.4584 108.452 77.4566 108.461C77.4557 108.472 77.4516 108.481 77.4449 108.489C77.4382 108.496 77.4292 108.502 77.4193 108.504C77.241 108.55 77.0581 108.576 76.874 108.581ZM76.5628 108.148C76.5407 108.146 76.5185 108.15 76.4989 108.161C76.4856 108.161 76.4697 108.179 76.467 108.219C76.4624 108.252 76.4661 108.286 76.4777 108.317C76.4893 108.348 76.5085 108.376 76.5335 108.398C76.7671 108.504 77.0326 108.517 77.2757 108.435C77.058 108.294 76.815 108.196 76.5601 108.148H76.5628Z" fill="#407BFF"/>
<path d="M77.406 108.507H77.382C77.1666 108.39 76.7463 107.93 76.7915 107.709C76.7988 107.672 76.8184 107.64 76.847 107.616C76.8755 107.592 76.9113 107.579 76.9485 107.578C76.9864 107.573 77.0251 107.576 77.0619 107.587C77.0986 107.598 77.1325 107.617 77.1613 107.642C77.4033 107.839 77.4539 108.44 77.4565 108.469C77.4567 108.478 77.4545 108.487 77.4504 108.495C77.4462 108.503 77.4401 108.51 77.4326 108.515C77.4231 108.515 77.4138 108.512 77.406 108.507ZM76.983 107.658H76.9618C76.8979 107.658 76.8926 107.695 76.8899 107.709C76.8633 107.844 77.1293 108.193 77.3448 108.355C77.3308 108.117 77.2445 107.889 77.0974 107.701C77.0657 107.673 77.0251 107.658 76.983 107.658Z" fill="#407BFF"/>
<path d="M63.7256 107.924C63.3825 107.924 62.7787 107.911 62.5871 107.674C62.5569 107.638 62.5363 107.594 62.5275 107.548C62.5187 107.501 62.5218 107.453 62.5366 107.408C62.5423 107.382 62.5546 107.358 62.5723 107.338C62.59 107.318 62.6125 107.303 62.6377 107.294C62.9037 107.201 63.6698 107.759 63.7549 107.826C63.7631 107.832 63.7691 107.84 63.772 107.85C63.7749 107.859 63.7745 107.87 63.7709 107.879C63.7697 107.891 63.7645 107.901 63.7563 107.91C63.7481 107.918 63.7372 107.923 63.7256 107.924ZM62.6776 107.392C62.6671 107.396 62.6578 107.402 62.6507 107.41C62.6437 107.419 62.6392 107.429 62.6377 107.44C62.629 107.468 62.6274 107.498 62.633 107.527C62.6386 107.555 62.6511 107.582 62.6696 107.605C62.776 107.741 63.1112 107.818 63.5793 107.82C63.2628 107.613 62.8372 107.36 62.6776 107.395V107.392Z" fill="#407BFF"/>
<path d="M63.7257 107.924C63.7137 107.929 63.7004 107.929 63.6884 107.924C63.4597 107.77 63.0447 107.238 63.1219 107.012C63.1405 106.959 63.191 106.897 63.3267 106.905C63.3776 106.908 63.4275 106.92 63.4733 106.943C63.5191 106.965 63.5597 106.997 63.5927 107.036C63.8188 107.302 63.7789 107.863 63.7762 107.887C63.7757 107.895 63.7729 107.903 63.7683 107.91C63.7636 107.917 63.7572 107.923 63.7496 107.927L63.7257 107.924ZM63.2628 107.001C63.2256 107.001 63.2176 107.028 63.215 107.036C63.1697 107.171 63.4437 107.581 63.6698 107.775C63.6884 107.537 63.6316 107.299 63.5076 107.094C63.4846 107.066 63.4563 107.044 63.4243 107.027C63.3923 107.011 63.3573 107.001 63.3214 106.998C63.3019 106.995 63.2819 106.996 63.2628 107.001Z" fill="#407BFF"/>
<path d="M71.0513 52.2477L70.2028 51.6412L56.291 71.1151L57.1395 71.7216C59.7251 73.4733 62.8929 74.1451 65.967 73.5936C69.041 73.0421 71.7778 71.311 73.5932 68.7697C75.4086 66.2285 76.159 63.0783 75.6841 59.9915C75.2092 56.9047 73.5466 54.1258 71.0513 52.2477Z" fill="#407BFF"/>
<path opacity="0.1" d="M71.0513 52.2477L70.2028 51.6412L56.291 71.1151L57.1395 71.7216C59.7251 73.4733 62.8929 74.1451 65.967 73.5936C69.041 73.0421 71.7778 71.311 73.5932 68.7697C75.4086 66.2285 76.159 63.0783 75.6841 59.9915C75.2092 56.9047 73.5466 54.1258 71.0513 52.2477Z" fill="black"/>
<path d="M50.4469 62.901C50.2489 61.2555 50.3708 59.5872 50.806 57.988L51.072 58.0571C50.6445 59.6242 50.5253 61.2593 50.7209 62.8717L50.4469 62.901Z" fill="#407BFF"/>
<path d="M51.2529 66.1116C51.0157 65.5062 50.8245 64.8838 50.681 64.2496L50.947 64.1911C51.0888 64.8106 51.2764 65.4188 51.5083 66.0105L51.2529 66.1116Z" fill="#407BFF"/>
<path d="M65.6653 73.0932C72.1373 71.76 76.3031 65.4326 74.9699 58.9606C73.6367 52.4886 67.3093 48.3228 60.8373 49.656C54.3653 50.9892 50.1994 57.3166 51.5327 63.7886C52.8659 70.2606 59.1933 74.4265 65.6653 73.0932Z" fill="#407BFF"/>
<path d="M60.422 64.4039L62.2999 61.7785C61.6473 60.9592 61.2989 60.1754 61.2545 59.427C61.2208 58.6622 61.4551 57.9096 61.9169 57.299C62.3558 56.6483 63.0316 56.1949 63.8002 56.0355C64.5945 55.8843 65.4167 56.0372 66.1037 56.4638L66.5559 55.8307L67.4656 56.4797L67.0108 57.1128C67.5672 57.5801 67.9542 58.2176 68.112 58.9269C68.231 59.6236 68.1189 60.3401 67.7928 60.9671L66.0585 60.0415C66.185 59.8027 66.248 59.5354 66.2414 59.2652C66.2349 58.9951 66.1591 58.7311 66.0213 58.4987L64.271 60.9512C65.0796 61.9407 65.5114 62.7813 65.5664 63.4729C65.6064 64.2126 65.3778 64.9419 64.9227 65.5264C64.4419 66.2425 63.7085 66.7508 62.8692 66.9495C61.9844 67.1317 61.0637 66.9861 60.2783 66.5399L59.8261 67.1729L58.9164 66.5239L59.3473 65.9201C58.7271 65.3875 58.3091 64.6577 58.1636 63.8533C58.0525 62.9773 58.2279 62.0889 58.6637 61.3209L60.4273 62.3158C60.2609 62.67 60.1781 63.0577 60.1852 63.4489C60.1885 63.7814 60.2695 64.1084 60.422 64.4039ZM65.1248 57.8204C64.8344 57.7259 64.5215 57.7259 64.2311 57.8204C63.9506 57.9097 63.7068 58.0881 63.5368 58.3284C63.3796 58.5509 63.2959 58.8168 63.2974 59.0892C63.3005 59.407 63.3927 59.7175 63.5634 59.9856L65.1248 57.8204ZM61.2678 65.1434C61.5987 65.3034 61.9754 65.342 62.3318 65.2524C62.6895 65.1645 63.0027 64.9488 63.2123 64.6459C63.4046 64.3861 63.4988 64.0667 63.4783 63.7442C63.4274 63.3547 63.2606 62.9896 62.9995 62.6962L61.2678 65.1434Z" fill="white"/>
<path opacity="0.1" d="M72.9399 60.382C72.383 57.9642 70.925 55.8499 68.8631 54.47C66.8012 53.09 64.2907 52.5484 61.8433 52.9554C59.3959 53.3625 57.1958 54.6876 55.6916 56.6606C54.1874 58.6337 53.4923 61.1061 53.748 63.574C53.4493 62.2775 53.4193 60.9336 53.6597 59.6251C53.9001 58.3166 54.4059 57.0712 55.1459 55.9655C55.8858 54.8599 56.8443 53.9174 57.9623 53.1963C59.0803 52.4751 60.3341 51.9904 61.6465 51.7721C62.9589 51.5539 64.302 51.6066 65.5933 51.9271C66.8845 52.2476 68.0965 52.829 69.1545 53.6356C70.2125 54.4422 71.0942 55.4569 71.7452 56.6171C72.3962 57.7774 72.8028 59.0586 72.9399 60.382Z" fill="black"/>
<path d="M80.8081 44.0496C81.0741 44.3874 81.2949 44.6906 81.5184 45.0205C81.7418 45.3503 81.9599 45.6668 82.1727 45.9967C82.5957 46.6564 82.9973 47.3267 83.3697 48.0263C83.7421 48.7258 84.0879 49.4414 84.4018 50.1809L84.6306 50.7421L84.838 51.3193C84.9072 51.5082 84.9657 51.7104 85.0269 51.9072L85.1147 52.2051L85.1386 52.2796L85.1785 52.4419C85.2038 52.5522 85.2216 52.6642 85.2317 52.777C85.257 53.1519 85.2072 53.5281 85.0854 53.8836C84.9935 54.1511 84.8731 54.4079 84.7263 54.6497C84.4835 55.0455 84.2019 55.4161 83.8858 55.7562C83.3247 56.3526 82.7153 56.9016 82.0637 57.3974C80.8249 58.3433 79.5059 59.1791 78.1215 59.8952L77.2597 58.5811C78.3742 57.6315 79.4888 56.6314 80.4969 55.6179C80.9868 55.1327 81.4419 54.6136 81.8588 54.0645C82.0359 53.835 82.1892 53.5881 82.3164 53.3276C82.3556 53.2423 82.386 53.1532 82.4068 53.0616C82.4068 53.0031 82.4068 52.9925 82.4068 53.0616C82.4029 53.0809 82.4029 53.1009 82.4068 53.1202C82.4063 53.1281 82.4063 53.1361 82.4068 53.1441L82.3829 53.0856L82.2898 52.8515C82.2259 52.6919 82.1701 52.535 82.0956 52.378L81.8828 51.9072L81.6567 51.4364C81.3401 50.8113 81.0023 50.1888 80.6352 49.5744C80.2682 48.9599 79.8878 48.3481 79.4914 47.747C79.2973 47.4437 79.0951 47.1431 78.8929 46.8479L78.2865 45.9834L80.8081 44.0496Z" fill="#7F3E3B"/>
<path d="M80.5395 42.9058C82.4999 43.3021 84.221 48.0954 84.221 48.0954L80.1299 51.4284C80.1299 51.4284 78.7999 48.9918 77.7146 46.6404C76.5469 44.0788 78.1641 42.427 80.5395 42.9058Z" fill="#407BFF"/>
<g opacity="0.3">
<path opacity="0.3" d="M80.5395 42.9058C82.4999 43.3021 84.221 48.0954 84.221 48.0954L80.1299 51.4284C80.1299 51.4284 78.7999 48.9918 77.7146 46.6404C76.5469 44.0788 78.1641 42.427 80.5395 42.9058Z" fill="white"/>
</g>
<path d="M77.7438 58.3976L75.6318 58.629L77.0017 60.9219C77.0017 60.9219 78.7573 60.3261 78.5445 59.3632L77.7438 58.3976Z" fill="#7F3E3B"/>
<path d="M74.3737 59.8393L75.5946 61.6827L77.0017 60.9219L75.6318 58.629L74.3737 59.8393Z" fill="#7F3E3B"/>
</svg>
