<svg width="133" height="89" viewBox="0 0 133 89" fill="none" xmlns="http://www.w3.org/2000/svg">
<path opacity="0.3" d="M29.7525 75.8193C43.6165 75.8193 54.8554 60.9025 54.8554 42.5018C54.8554 24.101 43.6165 9.18427 29.7525 9.18427C15.8886 9.18427 4.6496 24.101 4.6496 42.5018C4.6496 60.9025 15.8886 75.8193 29.7525 75.8193Z" stroke="#FF0066" stroke-width="4" stroke-miterlimit="10" stroke-dasharray="12 12"/>
<path opacity="0.3" d="M95.958 69.229C109.822 69.229 121.061 54.3122 121.061 35.9115C121.061 17.5107 109.822 2.59399 95.958 2.59399C82.094 2.59399 70.855 17.5107 70.855 35.9115C70.855 54.3122 82.094 69.229 95.958 69.229Z" stroke="#FF0066" stroke-width="4" stroke-miterlimit="10" stroke-dasharray="12 12"/>
<path d="M105.663 48.7864C104.581 47.2603 103.978 45.2448 103.977 43.1498C103.983 41.7047 104.271 40.2864 104.813 39.033C105.355 37.7796 106.133 36.7338 107.069 35.9976C106.65 35.1898 106.425 34.2324 106.424 33.2516C106.424 30.4892 108.17 28.2503 110.325 28.2503C111.157 28.2391 111.97 28.5829 112.643 29.2312C113.317 29.8795 113.816 30.798 114.067 31.8512C114.598 30.7407 115.334 29.8276 116.204 29.1978C117.075 28.568 118.052 28.2419 119.043 28.2503C122.253 28.2503 124.855 31.5876 124.855 35.7028C124.856 36.5818 124.735 37.4535 124.499 38.2749C124.617 38.2639 124.735 38.2511 124.855 38.2511C127.432 38.2511 129.52 40.9293 129.52 44.2336C129.52 44.4353 129.512 44.637 129.497 44.8377C131.557 45.9763 133 48.6033 133 51.6623C133 55.7647 130.407 59.091 127.207 59.091C126.871 59.0904 126.536 59.0524 126.204 58.9775C126.221 59.2246 126.232 59.4754 126.232 59.728C126.232 64.3321 123.322 68.0647 119.731 68.0647C118.413 68.0699 117.124 67.553 116.029 66.5801C115.143 67.5443 114.032 68.0692 112.886 68.0647C110.203 68.0647 108.029 65.2767 108.029 61.8406C108.029 61.6923 108.039 61.5458 108.047 61.3994H108.029C105.158 61.3994 102.83 58.4136 102.83 54.7304C102.835 53.4871 103.104 52.2709 103.605 51.2201C104.106 50.1693 104.819 49.3261 105.663 48.7864Z" fill="url(#paint0_linear)"/>
<path d="M106.188 48.7589C105.154 47.2978 104.577 45.3689 104.576 43.364C104.582 41.9807 104.857 40.623 105.376 39.4231C105.895 38.2233 106.639 37.2222 107.536 36.5174C107.134 35.7426 106.918 34.824 106.918 33.8832C106.918 31.2397 108.589 29.0961 110.651 29.0961C111.448 29.0856 112.227 29.4145 112.872 30.0347C113.518 30.6548 113.996 31.5334 114.238 32.5413C114.746 31.4808 115.449 30.6086 116.28 30.0064C117.112 29.4042 118.045 29.0917 118.992 29.0979C122.065 29.0979 124.555 32.2924 124.555 36.2374C124.555 37.0788 124.44 37.9132 124.214 38.6996C124.327 38.6886 124.44 38.6776 124.555 38.6776C127.021 38.6776 129.019 41.2405 129.019 44.4038C129.019 44.597 129.011 44.7901 128.996 44.9823C130.968 46.0807 132.349 48.5868 132.349 51.514C132.349 55.4407 129.866 58.6242 126.804 58.6242C126.481 58.6242 126.158 58.5881 125.839 58.5161C125.855 58.7523 125.865 58.9921 125.865 59.2338C125.865 63.6401 123.079 67.2116 119.643 67.2116C118.382 67.2161 117.148 66.7215 116.1 65.7911C115.255 66.7118 114.196 67.2151 113.102 67.2153C110.536 67.2153 108.454 64.5462 108.454 61.2548C108.454 61.112 108.463 60.9729 108.471 60.8319H108.454C105.705 60.8319 103.476 57.9743 103.476 54.4485C103.482 53.2584 103.739 52.0943 104.219 51.0886C104.698 50.0828 105.38 49.2757 106.188 48.7589Z" fill="#009688"/>
<path d="M117.613 40.413H115.793V84.7565H117.613V40.413Z" fill="url(#paint1_linear)"/>
<path d="M117.238 40.413H116.231V84.7565H117.238V40.413Z" fill="#795548"/>
<path d="M111.23 45.1501L110.511 46.0856L116.477 54.1632L117.196 53.2277L111.23 45.1501Z" fill="#795548"/>
<path d="M122.732 54.3245L116.547 60.0851L117.125 61.179L123.31 55.4184L122.732 54.3245Z" fill="#795548"/>
<path d="M117.675 49.5644C118.295 48.6227 118.756 47.5152 119.026 46.3169C119.296 45.1185 119.369 43.8571 119.24 42.618C119.111 41.3789 118.784 40.191 118.279 39.1344C117.775 38.0779 117.105 37.1773 116.316 36.4937C116.724 35.6554 116.941 34.6781 116.94 33.68C116.94 30.8572 115.254 28.5689 113.174 28.5689C112.352 28.577 111.555 28.9406 110.903 29.6046C110.25 30.2687 109.779 31.1969 109.56 32.2485C109.071 31.1329 108.37 30.2066 107.527 29.5612C106.684 28.9158 105.729 28.5737 104.756 28.5689C101.657 28.5689 99.1441 31.9794 99.1441 36.1862C99.1433 37.0822 99.2596 37.9716 99.4876 38.8149C99.3745 38.804 99.26 38.7911 99.1441 38.7911C96.6614 38.7911 94.6394 41.5371 94.6394 44.9054C94.6394 45.1141 94.6477 45.3192 94.6629 45.5224C93.6503 46.1248 92.7915 47.1047 92.1909 48.3429C91.5902 49.5812 91.2736 51.0244 91.2795 52.4971C91.2795 56.691 93.7843 60.0905 96.8725 60.0905C97.1962 60.0899 97.5193 60.0513 97.838 59.9752C97.8214 60.2278 97.8118 60.4841 97.8118 60.7422C97.8118 65.4469 100.621 69.262 104.089 69.262C105.37 69.2625 106.619 68.732 107.663 67.7444C108.502 68.7216 109.58 69.2609 110.697 69.262C113.287 69.262 115.386 66.4117 115.386 62.8969C115.386 62.7449 115.377 62.5948 115.37 62.4447H115.386C118.16 62.4447 120.407 59.3931 120.407 55.6293C120.411 54.3838 120.159 53.1605 119.678 52.0916C119.196 51.0226 118.503 50.1487 117.675 49.5644Z" fill="url(#paint2_linear)"/>
<path d="M116.949 49.5241C117.531 48.6401 117.963 47.6008 118.216 46.4763C118.47 45.3518 118.538 44.1683 118.417 43.0056C118.296 41.843 117.989 40.7283 117.515 39.7369C117.042 38.7455 116.414 37.9005 115.673 37.2588C116.057 36.4717 116.26 35.5543 116.258 34.6172C116.258 31.9665 114.676 29.8192 112.723 29.8192C111.953 29.8283 111.206 30.1703 110.595 30.7932C109.984 31.4161 109.542 32.2862 109.337 33.2717C108.877 32.2242 108.219 31.3544 107.428 30.7485C106.637 30.1426 105.74 29.8216 104.827 29.8173C101.918 29.8173 99.5593 33.0191 99.5593 36.9678C99.5587 37.8089 99.6679 38.6438 99.8821 39.4355C99.7759 39.4245 99.6683 39.4135 99.5593 39.4135C97.2242 39.4135 95.3319 41.9764 95.3319 45.1525C95.3319 45.3484 95.3388 45.5406 95.3539 45.731C94.4044 46.2979 93.5992 47.2184 93.0361 48.3807C92.473 49.543 92.1762 50.8973 92.1816 52.2792C92.1816 56.215 94.5264 59.4058 97.4325 59.4058C97.7373 59.4055 98.0415 59.3693 98.3415 59.2978C98.3263 59.5358 98.3166 59.7756 98.3166 60.0172C98.3166 64.4345 100.954 68.0134 104.208 68.0134C105.41 68.0141 106.583 67.5161 107.562 66.5892C108.35 67.5064 109.362 68.0125 110.41 68.0134C112.84 68.0134 114.811 65.3389 114.811 62.0382C114.811 61.8955 114.803 61.7545 114.796 61.6136H114.811C117.414 61.6136 119.524 58.7486 119.524 55.2155C119.528 54.0452 119.29 52.8959 118.836 51.8926C118.382 50.8893 117.729 50.0701 116.949 49.5241Z" fill="#00897B"/>
<path d="M107.656 40.3965H106.287V85.5729H107.656V40.3965Z" fill="url(#paint3_linear)"/>
<path d="M107.365 41.0318H106.677V85.5729H107.365V41.0318Z" fill="#795548"/>
<path d="M112.261 46.0522L106.611 54.149L107.116 54.7696L112.766 46.6729L112.261 46.0522Z" fill="#795548"/>
<path d="M101.216 55.292L100.806 56.0253L106.663 61.7981L107.073 61.0647L101.216 55.292Z" fill="#795548"/>
<path d="M91.3112 62.7742C90.5744 61.733 90.1641 60.3584 90.1637 58.9299C90.1681 57.9452 90.3645 56.9789 90.7338 56.1249C91.1032 55.2709 91.6328 54.5584 92.2712 54.0568C91.9848 53.5048 91.8314 52.8505 91.8312 52.1804C91.8312 50.2985 93.0215 48.7717 94.4891 48.7717C95.0561 48.7641 95.6099 48.9984 96.0691 49.44C96.5282 49.8816 96.8683 50.5073 97.0394 51.2248C97.4019 50.4681 97.9033 49.8461 98.4966 49.417C99.0898 48.988 99.7554 48.7659 100.431 48.7717C102.619 48.7717 104.392 51.0454 104.392 53.8499C104.393 54.4492 104.31 55.0436 104.15 55.6036C104.23 55.6036 104.31 55.5872 104.392 55.5872C106.148 55.5872 107.565 57.4178 107.565 59.664C107.565 59.8016 107.559 59.9391 107.548 60.0759C108.248 60.4505 108.849 61.0926 109.274 61.9206C109.699 62.7487 109.929 63.7256 109.936 64.7275C109.936 67.5229 108.169 69.7892 105.988 69.7892C105.757 69.7894 105.526 69.7637 105.299 69.7123C105.311 69.8808 105.318 70.051 105.318 70.2231C105.318 73.3608 103.334 75.898 100.888 75.898C99.9947 75.9035 99.1207 75.5576 98.3759 74.904C97.7712 75.558 97.014 75.9127 96.2339 75.9072C94.4063 75.9072 92.9236 74.007 92.9236 71.6638C92.9236 71.5613 92.9236 71.4624 92.936 71.3636H92.9236C90.9664 71.3636 89.3802 69.3297 89.3802 66.8199C89.3851 65.9735 89.5686 65.1457 89.9099 64.4306C90.2512 63.7155 90.7367 63.1417 91.3112 62.7742Z" fill="url(#paint4_linear)"/>
<path d="M91.6685 62.7559C90.962 61.7613 90.5675 60.4469 90.5651 59.08C90.5693 58.1374 90.7573 57.2123 91.111 56.3949C91.4646 55.5774 91.9717 54.8955 92.583 54.4155C92.309 53.8873 92.1623 53.261 92.1623 52.6197C92.1623 50.8183 93.3016 49.3575 94.7057 49.3575C95.2485 49.3499 95.7789 49.5741 96.2184 49.997C96.658 50.4199 96.9835 51.0191 97.147 51.7062C97.4939 50.982 97.9736 50.3866 98.5413 49.9757C99.1089 49.5649 99.7459 49.3522 100.392 49.3575C102.486 49.3575 104.184 51.5341 104.184 54.2196C104.185 54.7933 104.106 55.3622 103.952 55.8983C104.03 55.8983 104.105 55.8837 104.184 55.8837C105.864 55.8837 107.227 57.6301 107.227 59.7848C107.227 59.9162 107.222 60.0476 107.212 60.1784C107.882 60.537 108.457 61.1515 108.863 61.944C109.27 62.7366 109.491 63.6715 109.497 64.6305C109.497 67.3068 107.805 69.4761 105.718 69.4761C105.499 69.476 105.28 69.4515 105.064 69.4029C105.075 69.564 105.082 69.7269 105.082 69.8917C105.082 72.8939 103.184 75.3287 100.842 75.3287C99.9829 75.3314 99.1425 74.9943 98.4284 74.3603C97.8505 74.989 97.1259 75.3314 96.3787 75.3287C94.6298 75.3287 93.2064 73.5109 93.2064 71.2665C93.2064 71.1695 93.2064 71.0743 93.2174 70.9791H93.2064C91.3333 70.9791 89.8148 69.0313 89.8148 66.6295C89.8197 65.8183 89.9961 65.0252 90.3238 64.3404C90.6515 63.6557 91.1174 63.1067 91.6685 62.7559Z" fill="#009688"/>
<path d="M99.4546 57.0682H98.2145V87.2864H99.4546V57.0682Z" fill="url(#paint5_linear)"/>
<path d="M99.198 57.0682H98.5124V87.2864H99.198V57.0682Z" fill="#795548"/>
<path d="M95.1037 60.2953L94.6141 60.9322L98.6791 66.4358L99.1686 65.7989L95.1037 60.2953Z" fill="#795548"/>
<path d="M102.944 66.5465L98.7289 70.472L99.1227 71.2168L103.337 67.2912L102.944 66.5465Z" fill="#795548"/>
<path d="M102.976 63.6713C103.393 63.0398 103.703 62.2966 103.885 61.4921C104.067 60.6876 104.116 59.8407 104.029 59.0087C103.943 58.1767 103.723 57.3791 103.384 56.67C103.045 55.9609 102.595 55.3569 102.064 54.8989C102.336 54.3351 102.48 53.6791 102.478 53.0097C102.493 52.1924 102.282 51.3963 101.884 50.7715C101.487 50.1468 100.931 49.7365 100.322 49.6183C99.7126 49.5 99.0917 49.6819 98.5764 50.1297C98.0611 50.5774 97.6871 51.26 97.5249 52.0486C97.1963 51.3004 96.7261 50.679 96.1611 50.2459C95.596 49.8127 94.9555 49.5829 94.3029 49.579C92.223 49.579 90.5361 51.8673 90.5361 54.692C90.5355 55.2935 90.6135 55.8906 90.7665 56.4567C90.6906 56.4567 90.6134 56.4403 90.5361 56.4403C90.1346 56.4462 89.7378 56.5571 89.3685 56.7666C88.9993 56.9761 88.6647 57.2801 88.3839 57.6613C88.1032 58.0424 87.8817 58.4932 87.7323 58.9879C87.5828 59.4826 87.5082 60.0116 87.5128 60.5445C87.5128 60.6837 87.5128 60.8228 87.5279 60.9583C86.8483 61.3628 86.2718 62.0207 85.8688 62.8521C85.4657 63.6835 85.2534 64.6524 85.2576 65.641C85.2576 68.4547 86.939 70.7375 89.012 70.7375C89.2299 70.7374 89.4473 70.7116 89.6617 70.6606C89.6506 70.8309 89.6437 71.0011 89.6437 71.175C89.6437 74.3329 91.5306 76.8939 93.8561 76.8939C94.7159 76.8945 95.5545 76.5386 96.2546 75.8761C96.8183 76.5318 97.5422 76.8935 98.2918 76.8939C98.7099 76.8877 99.1229 76.7722 99.5073 76.5541C99.8918 76.3361 100.24 76.0196 100.532 75.6228C100.825 75.2261 101.055 74.7568 101.211 74.2417C101.366 73.7267 101.444 73.1761 101.439 72.6212C101.439 72.5187 101.439 72.418 101.428 72.3173H101.439C103.301 72.3173 104.81 70.2688 104.81 67.7407C104.813 66.9049 104.643 66.0841 104.32 65.3668C103.997 64.6496 103.532 64.0633 102.976 63.6713Z" fill="url(#paint6_linear)"/>
<path d="M102.489 63.6456C102.88 63.0522 103.171 62.3542 103.341 61.5989C103.511 60.8435 103.557 60.0485 103.476 59.2675C103.395 58.4864 103.188 57.7377 102.87 57.0718C102.552 56.4059 102.13 55.8384 101.632 55.4078C101.89 54.8798 102.026 54.2644 102.026 53.6357C102.039 52.8685 101.841 52.1211 101.468 51.5345C101.096 50.9479 100.574 50.5628 100.002 50.4517C99.4297 50.3407 98.8468 50.5114 98.363 50.9317C97.8792 51.3521 97.5281 51.9929 97.376 52.7332C97.0672 52.0304 96.6254 51.4468 96.0943 51.0403C95.5633 50.6338 94.9615 50.4184 94.3484 50.4156C92.3954 50.4156 90.8133 52.5648 90.8133 55.2156C90.8128 55.7803 90.8861 56.3408 91.0299 56.8723C90.9581 56.8723 90.8919 56.8576 90.8133 56.8576C90.0533 56.8692 89.3277 57.2805 88.7958 58.0012C88.2639 58.7219 87.9691 59.6932 87.9761 60.702C87.9761 60.8338 87.9761 60.9637 87.9899 61.0901C87.3522 61.4696 86.8113 62.0869 86.433 62.8669C86.0546 63.6469 85.8552 64.556 85.8589 65.4836C85.8589 68.1252 87.4368 70.267 89.383 70.267C89.5874 70.2665 89.7915 70.242 89.9926 70.1938C89.9816 70.3531 89.9761 70.5141 89.9761 70.6771C89.9761 73.6409 91.7471 76.0445 93.9305 76.0445C94.738 76.0452 95.5255 75.7112 96.1829 75.0889C96.7115 75.705 97.391 76.0447 98.0946 76.0445C98.8868 76.0324 99.643 75.6034 100.197 74.8516C100.751 74.0998 101.057 73.0869 101.049 72.0354C101.049 71.9402 101.049 71.8523 101.038 71.7517H101.049C101.469 71.7454 101.884 71.6294 102.271 71.4102C102.657 71.191 103.007 70.8729 103.301 70.4741C103.595 70.0753 103.827 69.6036 103.983 69.0859C104.14 68.5683 104.218 68.0147 104.213 67.457C104.214 66.6736 104.054 65.9046 103.75 65.233C103.447 64.5613 103.01 64.0125 102.489 63.6456Z" fill="#00897B"/>
<path d="M96.2518 57.5185H95.3332V87.8411H96.2518V57.5185Z" fill="url(#paint7_linear)"/>
<path d="M96.0559 57.9449H95.5939V87.841H96.0559V57.9449Z" fill="#795548"/>
<path d="M99.3412 61.3125L95.5496 66.747L95.8886 67.1637L99.6802 61.7292L99.3412 61.3125Z" fill="#795548"/>
<path d="M91.928 67.5164L91.6525 68.0088L95.5835 71.8835L95.859 71.3912L91.928 67.5164Z" fill="#795548"/>
<path d="M94.7938 42.6464H55.8981V88.5953H94.7938V42.6464Z" fill="url(#paint8_linear)"/>
<path d="M93.8285 42.6464H30.3815V87.1308H93.8285V42.6464Z" fill="white"/>
<path d="M96.8642 47.0399H34.5208V25.4385H94.5884C95.192 25.4385 95.7708 25.7567 96.1976 26.3232C96.6244 26.8896 96.8642 27.6579 96.8642 28.459V47.0399Z" fill="url(#paint9_linear)"/>
<path d="M34.5193 26.2934H94.0517C94.6553 26.2934 95.2341 26.6116 95.6609 27.1781C96.0877 27.7446 96.3275 28.5128 96.3275 29.3139V46.4834H34.5193V26.2934Z" fill="#6C63FF"/>
<path opacity="0.7" d="M34.5193 26.2934H94.0517C94.6553 26.2934 95.2341 26.6116 95.6609 27.1781C96.0877 27.7446 96.3275 28.5128 96.3275 29.3139V46.4834H34.5193V26.2934Z" fill="white"/>
<path d="M34.3814 2.00452L12.8646 22.1158V39.062V88.5934H55.8982V39.062V22.1158L34.3814 2.00452Z" fill="url(#paint10_linear)"/>
<path d="M54.9327 21.7772L34.5194 2.00452L14.106 21.7772V38.4341H54.9327V21.7772Z" fill="#6C63FF"/>
<path opacity="0.5" d="M54.9327 21.7772L34.5194 2.00452L14.106 21.7772V38.4341H54.9327V21.7772Z" fill="white"/>
<path d="M54.9327 38.436H14.106V87.1308H54.9327V38.436Z" fill="white"/>
<path d="M57.5533 31.6608L34.5193 9.83049L11.2095 31.6608L9.69226 23.9831L34.5193 0L59.3464 23.9831L57.5533 31.6608Z" fill="url(#paint11_linear)"/>
<path d="M57.3423 30.5368L34.5194 8.4905L11.6978 30.5368L10.7227 23.6335L34.5194 0.648071L58.3175 23.6335L57.3423 30.5368Z" fill="#143FAE"/>
<path opacity="0.2" d="M57.3423 30.5368L34.5194 8.4905L11.6978 30.5368L10.7227 23.6335L34.5194 0.648071L58.3175 23.6335L57.3423 30.5368Z" fill="#143FAE"/>
<path d="M46.1053 49.0536H22.9333V87.1307H46.1053V49.0536Z" fill="#F2F2F2"/>
<path d="M46.1053 49.0536H22.9333V55.6439H46.1053V49.0536Z" fill="#143FAE"/>
<path d="M46.1053 80.5405H22.9333V87.1308H46.1053V80.5405Z" fill="#143FAE"/>
<path d="M73.324 73.4394C73.3789 73.4394 73.4315 73.4105 73.4703 73.359C73.5092 73.3075 73.531 73.2377 73.531 73.1649C73.531 73.092 73.5092 73.0222 73.4703 72.9707C73.4315 72.9192 73.3789 72.8903 73.324 72.8903C73.2692 72.8903 73.2165 72.9192 73.1777 72.9707C73.1389 73.0222 73.1171 73.092 73.1171 73.1649C73.1171 73.2377 73.1389 73.3075 73.1777 73.359C73.2165 73.4105 73.2692 73.4394 73.324 73.4394Z" fill="#00FF00"/>
<path d="M78.9322 59.3052H67.6221V87.1308H78.9322V59.3052Z" fill="#F2F2F2"/>
<path d="M92.4492 53.4471H81.8287V63.6987H92.4492V53.4471Z" fill="#F2F2F2"/>
<path opacity="0.2" d="M92.4492 53.4471H81.8287V58.0237H92.4492V53.4471Z" fill="#6C63FF"/>
<path d="M8.3738 68.2313C7.75681 67.3659 7.41154 66.2209 7.40831 65.0295C7.41247 64.2088 7.57646 63.4034 7.88435 62.6917C8.19225 61.9799 8.63359 61.3859 9.16551 60.9673C8.92683 60.5075 8.79889 59.9624 8.79862 59.404C8.80878 58.6375 9.04779 57.9077 9.46315 57.3749C9.8785 56.8422 10.4362 56.5501 11.0137 56.5628C11.4873 56.5558 11.9501 56.7511 12.3336 57.12C12.7171 57.4889 13.001 58.0118 13.1434 58.6113C13.4456 57.9806 13.8636 57.4621 14.3582 57.1044C14.8528 56.7467 15.4077 56.5617 15.9709 56.5665C17.7943 56.5665 19.2729 58.463 19.2729 60.8008C19.2732 61.3013 19.2045 61.7976 19.0701 62.2653C19.1377 62.2653 19.208 62.2524 19.2729 62.2524C20.7363 62.2524 21.9225 63.7737 21.9225 65.6501C21.9223 65.7644 21.9177 65.8787 21.9087 65.9924C22.4923 66.3047 22.993 66.8399 23.3473 67.5301C23.7016 68.2203 23.8936 69.0345 23.899 69.8697C23.899 72.2001 22.4259 74.0893 20.608 74.0893C20.4171 74.0891 20.2266 74.0677 20.0384 74.0252C20.048 74.1662 20.0535 74.3072 20.0535 74.4518C20.0535 77.0677 18.3984 79.1876 16.3612 79.1876C15.6124 79.1902 14.8801 78.8964 14.2578 78.3437C13.7543 78.8917 13.1228 79.1901 12.4716 79.1876C10.9544 79.1876 9.71309 77.6041 9.71309 75.649C9.71309 75.5648 9.71308 75.4806 9.72274 75.3982H9.71309C8.0814 75.3982 6.75867 73.7012 6.75867 71.6106C6.76218 70.903 6.91547 70.211 7.20105 69.6135C7.48663 69.016 7.893 68.537 8.3738 68.2313Z" fill="url(#paint12_linear)"/>
<path d="M8.66739 68.2167C8.07994 67.3867 7.7525 66.291 7.75155 65.1522C7.75497 64.3666 7.91163 63.5955 8.20628 62.9141C8.50093 62.2327 8.92352 61.6642 9.43289 61.264C9.20454 60.8234 9.08237 60.3012 9.08256 59.7665C9.08723 59.403 9.1458 59.0443 9.25495 58.7108C9.36409 58.3774 9.52166 58.0757 9.71865 57.8231C9.91564 57.5705 10.1482 57.3719 10.403 57.2386C10.6579 57.1053 10.93 57.0399 11.2039 57.0462C11.6562 57.0402 12.098 57.2271 12.4643 57.5794C12.8305 57.9317 13.1019 58.4308 13.2383 59.0031C13.5276 58.3994 13.9277 57.9031 14.401 57.5608C14.8744 57.2185 15.4055 57.0415 15.9445 57.0462C17.6893 57.0462 19.1044 58.8603 19.1044 61.0992C19.1048 61.5771 19.0393 62.0511 18.9113 62.4978C18.9748 62.4978 19.0396 62.485 19.1044 62.485C20.5058 62.485 21.6409 63.9495 21.6409 65.738C21.641 65.8475 21.6369 65.9568 21.6285 66.0657C22.1869 66.3652 22.6658 66.8778 23.0046 67.5387C23.3434 68.1995 23.527 68.9789 23.5319 69.7782C23.5319 72.0098 22.1223 73.8184 20.3816 73.8184C20.1967 73.8184 20.0122 73.7976 19.8299 73.7562C19.8396 73.8898 19.8451 74.0271 19.8451 74.1644C19.8451 76.6669 18.2631 78.697 16.31 78.697C15.5959 78.6971 14.8978 78.4155 14.3045 77.8879C13.8228 78.4122 13.2186 78.6976 12.5956 78.6952C11.1377 78.6952 9.95564 77.1795 9.95564 75.3086C9.95564 75.228 9.95564 75.1475 9.9653 75.0687H9.95564C8.39429 75.0687 7.12811 73.445 7.12811 71.4423C7.13219 70.7675 7.27853 70.1077 7.55058 69.5376C7.82262 68.9676 8.2095 68.51 8.66739 68.2167Z" fill="#009688"/>
<path d="M15.1583 63.4753H14.1238V88.6667H15.1583V63.4753Z" fill="url(#paint13_linear)"/>
<path d="M14.9432 63.4753H14.3723V88.6667H14.9432V63.4753Z" fill="#795548"/>
<path d="M11.5305 66.165L11.1227 66.6956L14.5118 71.2841L14.9195 70.7535L11.5305 66.165Z" fill="#795548"/>
<path d="M18.0662 71.3773L14.5527 74.6498L14.8808 75.2701L18.3942 71.9976L18.0662 71.3773Z" fill="#795548"/>
<path d="M1.61514 68.2313C0.998142 67.3659 0.652872 66.2209 0.649644 65.0295C0.653803 64.2088 0.817793 63.4034 1.12569 62.6917C1.43359 61.9799 1.87493 61.3859 2.40685 60.9673C2.16817 60.5075 2.04023 59.9624 2.03996 59.404C2.05012 58.6375 2.28913 57.9077 2.70449 57.3749C3.11985 56.8422 3.67756 56.5501 4.25509 56.5628C4.72869 56.5558 5.19144 56.7511 5.57494 57.12C5.95844 57.4889 6.24235 58.0118 6.38471 58.6113C6.68698 57.9806 7.105 57.4621 7.59956 57.1044C8.09413 56.7467 8.64903 56.5617 9.21224 56.5665C11.0357 56.5665 12.5142 58.463 12.5142 60.8008C12.5146 61.3013 12.4459 61.7976 12.3115 62.2653C12.3791 62.2653 12.4494 62.2524 12.5142 62.2524C13.9777 62.2524 15.1639 63.7737 15.1639 65.6501C15.1637 65.7644 15.1591 65.8787 15.1501 65.9924C15.7337 66.3047 16.2343 66.8399 16.5886 67.5301C16.943 68.2203 17.135 69.0345 17.1404 69.8697C17.1404 72.2001 15.6673 74.0893 13.8494 74.0893C13.6585 74.0891 13.4679 74.0677 13.2797 74.0252C13.2894 74.1662 13.2949 74.3072 13.2949 74.4518C13.2949 77.0677 11.6398 79.1876 9.60258 79.1876C8.8538 79.1902 8.12145 78.8964 7.49917 78.3437C6.99567 78.8917 6.36415 79.1901 5.713 79.1876C4.19578 79.1876 2.95443 77.6041 2.95443 75.649C2.95443 75.5648 2.95443 75.4806 2.96408 75.3982H2.95443C1.32274 75.3982 0 73.7012 0 71.6106C0.00351151 70.903 0.156803 70.211 0.442385 69.6135C0.727967 69.016 1.13434 68.537 1.61514 68.2313Z" fill="url(#paint14_linear)"/>
<path d="M1.90897 68.2167C1.32152 67.3867 0.994077 66.291 0.993124 65.1522C0.996545 64.3666 1.15321 63.5955 1.44786 62.9141C1.7425 62.2327 2.16509 61.6642 2.67446 61.264C2.44611 60.8234 2.32394 60.3012 2.32413 59.7665C2.3288 59.403 2.38737 59.0443 2.49652 58.7108C2.60566 58.3774 2.76323 58.0757 2.96022 57.8231C3.15721 57.5705 3.38977 57.3719 3.64461 57.2386C3.89945 57.1053 4.17158 57.0399 4.44546 57.0462C4.89776 57.0402 5.33957 57.2271 5.70582 57.5794C6.07208 57.9317 6.34342 58.4308 6.47989 59.0031C6.76915 58.3994 7.16922 57.9031 7.64256 57.5608C8.1159 57.2185 8.64701 57.0415 9.18604 57.0462C10.9308 57.0462 12.346 58.8603 12.346 61.0992C12.3463 61.5771 12.2809 62.0511 12.1529 62.4978C12.2163 62.4978 12.2811 62.485 12.346 62.485C13.7473 62.485 14.8825 63.9495 14.8825 65.738C14.8826 65.8475 14.8784 65.9568 14.87 66.0657C15.4284 66.3652 15.9073 66.8778 16.2462 67.5387C16.585 68.1995 16.7685 68.9789 16.7734 69.7782C16.7734 72.0098 15.3638 73.8184 13.6232 73.8184C13.4383 73.8184 13.2537 73.7976 13.0715 73.7562C13.0811 73.8898 13.0866 74.0271 13.0866 74.1644C13.0866 76.6669 11.5046 78.697 9.55155 78.697C8.83741 78.6971 8.13937 78.4155 7.54608 77.8879C7.06434 78.4122 6.46014 78.6976 5.83715 78.6952C4.37925 78.6952 3.19721 77.1795 3.19721 75.3086C3.19721 75.228 3.19721 75.1475 3.20686 75.0687H3.19721C1.63587 75.0687 0.36969 73.445 0.36969 71.4423C0.373763 70.7675 0.520108 70.1077 0.792153 69.5376C1.0642 68.9676 1.45107 68.51 1.90897 68.2167Z" fill="#009688"/>
<path d="M8.39991 63.4753H7.36542V88.6667H8.39991V63.4753Z" fill="url(#paint15_linear)"/>
<path d="M8.18476 63.4753H7.61371V88.6667H8.18476V63.4753Z" fill="#795548"/>
<path d="M4.77307 66.1654L4.3653 66.6959L7.75438 71.2844L8.16216 70.7539L4.77307 66.1654Z" fill="#795548"/>
<path d="M11.3078 71.3786L7.79431 74.6512L8.12233 75.2716L11.6358 71.999L11.3078 71.3786Z" fill="#795548"/>
<path d="M16.9902 68.4309C17.3385 67.9039 17.5974 67.2836 17.7492 66.6121C17.901 65.9407 17.9423 65.2337 17.8702 64.5392C17.7982 63.8448 17.6144 63.179 17.3314 62.587C17.0485 61.995 16.6729 61.4908 16.2302 61.1084C16.4586 60.6393 16.5798 60.0925 16.5792 59.534C16.5918 58.8524 16.416 58.1882 16.0849 57.667C15.7538 57.1457 15.2903 56.8034 14.782 56.7047C14.2738 56.606 13.7558 56.7577 13.3261 57.1313C12.8963 57.5049 12.5846 58.0743 12.4496 58.7322C12.1755 58.1079 11.7832 57.5895 11.3117 57.2283C10.8402 56.867 10.3058 56.6755 9.76137 56.6727C9.34418 56.6782 8.93191 56.7929 8.54815 57.0102C8.16439 57.2274 7.8167 57.543 7.52497 57.9389C7.23324 58.3348 7.00321 58.8031 6.84806 59.3171C6.6929 59.8312 6.61565 60.3807 6.62075 60.9344C6.62073 61.4336 6.68559 61.929 6.81247 62.3989C6.74903 62.3989 6.68558 62.3861 6.62075 62.3861C6.28473 62.3907 5.95269 62.4833 5.64375 62.6588C5.33481 62.8343 5.05506 63.0891 4.82061 63.4086C4.58615 63.7282 4.40161 64.1061 4.2776 64.5206C4.1536 64.9351 4.09258 65.3781 4.09805 65.8241C4.09805 65.9412 4.09805 66.0565 4.11046 66.17C3.54406 66.5073 3.06369 67.0558 2.72774 67.7487C2.39179 68.4415 2.21473 69.249 2.21809 70.073C2.21036 71.1865 2.53532 72.2588 3.12185 73.0551C3.70838 73.8514 4.50871 74.3069 5.34768 74.3219C5.52943 74.3218 5.71083 74.3003 5.88974 74.2578C5.88008 74.3987 5.87456 74.5415 5.87456 74.6861C5.87456 77.3186 7.44694 79.4458 9.38621 79.4458C10.1032 79.4455 10.8023 79.1486 11.3862 78.5964C11.8559 79.1433 12.4592 79.4451 13.0841 79.4458C13.7872 79.4342 14.4581 79.0527 14.9494 78.3851C15.4408 77.7175 15.7124 76.8184 15.7047 75.8852C15.7047 75.7992 15.7047 75.7168 15.695 75.6326H15.7047C16.4582 75.621 17.1773 75.2128 17.7042 74.4978C18.231 73.7828 18.5224 72.8194 18.5143 71.8194C18.5165 71.124 18.3758 70.441 18.1072 69.8439C17.8386 69.2468 17.4524 68.7583 16.9902 68.4309Z" fill="url(#paint16_linear)"/>
<path d="M16.5845 68.409C16.9104 67.9143 17.1524 67.3326 17.2942 66.7032C17.436 66.0737 17.4743 65.4111 17.4066 64.7603C17.3389 64.1095 17.1666 63.4856 16.9016 62.9307C16.6365 62.3758 16.2847 61.903 15.8701 61.5441C16.0842 61.1038 16.1977 60.5908 16.197 60.0668C16.2098 59.4264 16.0453 58.8019 15.7345 58.3117C15.4237 57.8216 14.9883 57.4996 14.5107 57.4069C14.0331 57.3142 13.5465 57.4571 13.143 57.8087C12.7395 58.1602 12.4471 58.6959 12.3212 59.3144C12.0638 58.7282 11.6955 58.2415 11.2528 57.9024C10.8101 57.5633 10.3083 57.3837 9.79711 57.3812C9.00766 57.3957 8.25475 57.8251 7.7035 58.5753C7.15225 59.3255 6.84764 60.3352 6.85648 61.383C6.85619 61.8535 6.91733 62.3205 7.03717 62.7633C6.97786 62.7633 6.91717 62.7505 6.85648 62.7505C6.22203 62.7601 5.61644 63.1038 5.17286 63.7059C4.72928 64.3081 4.48403 65.1193 4.49102 65.9614C4.49102 66.0712 4.49102 66.1792 4.50343 66.2854C3.97194 66.6017 3.52112 67.1161 3.20574 67.7661C2.89037 68.4161 2.72402 69.1736 2.72692 69.9467C2.71846 70.9924 3.02315 71.9997 3.57404 72.7474C4.12493 73.495 4.87694 73.9217 5.66478 73.9338C5.83545 73.9337 6.00577 73.9135 6.17374 73.8734C6.16546 74.007 6.15995 74.1407 6.15995 74.2761C6.15995 76.7475 7.63578 78.7502 9.45643 78.7502C10.1294 78.7508 10.7857 78.4724 11.3336 77.9539C11.7743 78.4656 12.3398 78.7479 12.9253 78.7484C13.2524 78.7436 13.5757 78.6533 13.8765 78.4828C14.1773 78.3122 14.4499 78.0646 14.6787 77.7542C14.9074 77.4438 15.0879 77.0766 15.2097 76.6737C15.3315 76.2707 15.3924 75.8398 15.3887 75.4056C15.3887 75.3251 15.3887 75.2464 15.3804 75.1677H15.3887C15.739 75.1624 16.0851 75.0656 16.4072 74.8828C16.7294 74.7 17.0212 74.4348 17.2661 74.1023C17.511 73.7698 17.7041 73.3765 17.8345 72.9449C17.9649 72.5133 18.0299 72.0519 18.0259 71.5869C18.0266 70.9332 17.8927 70.2917 17.6386 69.7316C17.3846 69.1715 17.0201 68.7142 16.5845 68.409Z" fill="#00897B"/>
<path d="M11.3833 63.3014H10.6178V88.5806H11.3833V63.3014Z" fill="url(#paint17_linear)"/>
<path d="M11.2206 63.6566H10.8358V88.5806H11.2206V63.6566Z" fill="#795548"/>
<path d="M13.9636 66.4649L10.8026 70.9955L11.085 71.3425L14.246 66.8119L13.9636 66.4649Z" fill="#795548"/>
<path d="M7.77955 71.6356L7.55011 72.0456L10.8278 75.2763L11.0572 74.8663L7.77955 71.6356Z" fill="#795548"/>
<path d="M98.3897 9.22824C96.4391 6.53489 94.1023 4.38668 91.5167 2.91005C88.9312 1.43342 86.1492 0.658213 83.3345 0.630067C80.5199 0.601922 77.7294 1.3214 75.1274 2.74616C72.5254 4.17091 70.1644 6.27215 68.1835 8.92618C60.196 19.6134 60.0609 37.0136 67.8731 47.9187C71.3047 52.7155 75.9046 55.7456 80.8582 56.4724C85.8118 57.1991 90.7993 55.5756 94.9374 51.8893L110.192 72.9416C110.286 73.0708 110.397 73.1743 110.521 73.2462C110.644 73.3181 110.777 73.357 110.912 73.3606C111.047 73.3641 111.181 73.3324 111.307 73.2671C111.433 73.2018 111.547 73.1042 111.645 72.98L115.445 68.1307C115.542 68.0067 115.62 67.8585 115.674 67.6945C115.728 67.5304 115.758 67.3539 115.76 67.1748C115.763 66.9958 115.739 66.8177 115.69 66.651C115.641 66.4842 115.567 66.332 115.473 66.203L100.219 45.1507C103.144 39.8328 104.564 33.3171 104.229 26.7478C103.895 20.1785 101.827 13.9756 98.3897 9.22824ZM93.6381 43.0803C91.4867 45.827 88.7699 47.6653 85.8314 48.3628C82.8928 49.0602 79.8644 48.5855 77.1291 46.9986C74.3938 45.4117 72.0745 42.7839 70.4644 39.4475C68.8544 36.1111 68.0259 32.216 68.0838 28.2547C68.1416 24.2934 69.0832 20.4438 70.7895 17.1927C72.4958 13.9417 74.8901 11.4352 77.6697 9.9902C80.4493 8.54521 83.4893 8.22663 86.4053 9.07474C89.3213 9.92285 91.9823 11.8996 94.0519 14.7549C95.426 16.6508 96.5054 18.8874 97.2283 21.337C97.9512 23.7865 98.3035 26.4011 98.265 29.0313C98.2266 31.6616 97.7982 34.2561 97.0043 36.6666C96.2104 39.0771 95.0666 41.2565 93.6381 43.0803Z" fill="url(#paint18_linear)"/>
<path d="M71.9986 23.0696C70.3007 23.0696 70.2979 26.5698 71.9986 26.5698C73.6992 26.5698 73.6978 23.0696 71.9986 23.0696Z" fill="url(#paint19_linear)"/>
<path d="M83.8301 11.8552C79.2619 11.7179 75.1034 14.7604 72.8938 19.3608C72.1724 20.8582 74.2207 22.1818 74.9379 20.6917C76.7682 16.8894 80.2467 14.4675 84.0053 14.6011C87.9472 14.7329 91.5347 17.726 93.434 21.8797C94.1554 23.4559 96.0422 22.0225 95.3264 20.4555C93.0216 15.4084 88.55 11.9961 83.8301 11.8552Z" fill="url(#paint20_linear)"/>
<path d="M87.4343 11.8771C85.9385 10.2839 84.1466 9.01312 82.164 8.13964C80.1813 7.26615 78.048 6.80759 75.8897 6.79094C73.7313 6.77429 71.5916 7.19989 69.5963 8.04269C67.601 8.88549 65.7906 10.1285 64.2715 11.6984C58.1466 18.0203 58.043 28.3132 64.0336 34.764C66.665 37.6015 70.1923 39.394 73.9908 39.8239C77.7893 40.2538 81.6138 39.2934 84.787 37.1128L96.4847 49.5661C96.5563 49.6425 96.6419 49.7038 96.7367 49.7463C96.8315 49.7888 96.9335 49.8118 97.0369 49.8139C97.1404 49.816 97.2432 49.7972 97.3396 49.7586C97.4359 49.72 97.5239 49.6623 97.5984 49.5888L100.513 46.7191C100.588 46.6458 100.648 46.5581 100.689 46.4611C100.731 46.3641 100.753 46.2596 100.755 46.1537C100.757 46.0478 100.739 45.9425 100.701 45.8439C100.664 45.7452 100.607 45.6552 100.536 45.5788L88.8378 33.1256C91.0804 29.9798 92.1689 26.1256 91.9122 22.2399C91.6556 18.3541 90.0701 14.6851 87.4343 11.8771ZM83.7907 31.9019C82.1409 33.5267 80.0577 34.6142 77.8043 35.0267C75.5509 35.4393 73.2287 35.1585 71.1312 34.2198C69.0337 33.281 67.2552 31.7266 66.0206 29.753C64.786 27.7794 64.1507 25.4753 64.1951 23.132C64.2395 20.7887 64.9615 18.5115 66.2699 16.5884C67.5783 14.6653 69.4144 13.1826 71.5458 12.3278C73.6772 11.4731 76.0084 11.2846 78.2444 11.7863C80.4804 12.288 82.521 13.4573 84.108 15.1463C85.1617 16.2679 85.9894 17.5909 86.5437 19.0399C87.098 20.4889 87.3682 22.0355 87.3387 23.5914C87.3092 25.1473 86.9807 26.6821 86.372 28.108C85.7632 29.5339 84.8861 30.8231 83.7907 31.9019Z" fill="#FF0066"/>
<path d="M75.8287 12.6035C71.9897 12.4648 68.4949 15.5392 66.6379 20.1878C66.0317 21.701 67.753 23.0384 68.3558 21.5326C69.8939 17.6905 72.8173 15.2432 75.976 15.3783C79.2888 15.5114 82.3037 18.5359 83.8998 22.7332C84.5061 24.3259 86.0918 22.8775 85.4902 21.294C83.5533 16.1977 79.7953 12.7478 75.8287 12.6035Z" fill="#6C63FF"/>
<defs>
<linearGradient id="paint0_linear" x1="117.916" y1="68.0592" x2="117.916" y2="28.243" gradientUnits="userSpaceOnUse">
<stop stop-color="#808080" stop-opacity="0.25"/>
<stop offset="0.54" stop-color="#808080" stop-opacity="0.12"/>
<stop offset="1" stop-color="#808080" stop-opacity="0.1"/>
</linearGradient>
<linearGradient id="paint1_linear" x1="1655.02" y1="20676.5" x2="1655.02" y2="9934.76" gradientUnits="userSpaceOnUse">
<stop stop-color="#808080" stop-opacity="0.25"/>
<stop offset="0.54" stop-color="#808080" stop-opacity="0.12"/>
<stop offset="1" stop-color="#808080" stop-opacity="0.1"/>
</linearGradient>
<linearGradient id="paint2_linear" x1="26704.7" y1="25672.9" x2="26704.7" y2="16626.9" gradientUnits="userSpaceOnUse">
<stop stop-color="#808080" stop-opacity="0.25"/>
<stop offset="0.54" stop-color="#808080" stop-opacity="0.12"/>
<stop offset="1" stop-color="#808080" stop-opacity="0.1"/>
</linearGradient>
<linearGradient id="paint3_linear" x1="1167.53" y1="21265.1" x2="1167.53" y2="10116.5" gradientUnits="userSpaceOnUse">
<stop stop-color="#808080" stop-opacity="0.25"/>
<stop offset="0.54" stop-color="#808080" stop-opacity="0.12"/>
<stop offset="1" stop-color="#808080" stop-opacity="0.1"/>
</linearGradient>
<linearGradient id="paint4_linear" x1="17948.9" y1="18134.2" x2="17948.9" y2="14112.4" gradientUnits="userSpaceOnUse">
<stop stop-color="#808080" stop-opacity="0.25"/>
<stop offset="0.54" stop-color="#808080" stop-opacity="0.12"/>
<stop offset="1" stop-color="#808080" stop-opacity="0.1"/>
</linearGradient>
<linearGradient id="paint5_linear" x1="986.758" y1="14537" x2="986.758" y2="9548.9" gradientUnits="userSpaceOnUse">
<stop stop-color="#808080" stop-opacity="0.25"/>
<stop offset="0.54" stop-color="#808080" stop-opacity="0.12"/>
<stop offset="1" stop-color="#808080" stop-opacity="0.1"/>
</linearGradient>
<linearGradient id="paint6_linear" x1="16417.9" y1="18401.6" x2="16417.9" y2="14326" gradientUnits="userSpaceOnUse">
<stop stop-color="#808080" stop-opacity="0.25"/>
<stop offset="0.54" stop-color="#808080" stop-opacity="0.12"/>
<stop offset="1" stop-color="#808080" stop-opacity="0.1"/>
</linearGradient>
<linearGradient id="paint7_linear" x1="733.31" y1="14679.4" x2="733.31" y2="9656.74" gradientUnits="userSpaceOnUse">
<stop stop-color="#808080" stop-opacity="0.25"/>
<stop offset="0.54" stop-color="#808080" stop-opacity="0.12"/>
<stop offset="1" stop-color="#808080" stop-opacity="0.1"/>
</linearGradient>
<linearGradient id="paint8_linear" x1="21303.1" y1="22388.9" x2="21303.1" y2="10855.8" gradientUnits="userSpaceOnUse">
<stop stop-color="#808080" stop-opacity="0.25"/>
<stop offset="0.54" stop-color="#808080" stop-opacity="0.12"/>
<stop offset="1" stop-color="#808080" stop-opacity="0.1"/>
</linearGradient>
<linearGradient id="paint9_linear" x1="38847.7" y1="11016" x2="38847.7" y2="8467.07" gradientUnits="userSpaceOnUse">
<stop stop-color="#808080" stop-opacity="0.25"/>
<stop offset="0.54" stop-color="#808080" stop-opacity="0.12"/>
<stop offset="1" stop-color="#808080" stop-opacity="0.1"/>
</linearGradient>
<linearGradient id="paint10_linear" x1="10739.4" y1="42112.8" x2="10739.4" y2="1156.23" gradientUnits="userSpaceOnUse">
<stop stop-color="#808080" stop-opacity="0.25"/>
<stop offset="0.54" stop-color="#808080" stop-opacity="0.12"/>
<stop offset="1" stop-color="#808080" stop-opacity="0.1"/>
</linearGradient>
<linearGradient id="paint11_linear" x1="12436.1" y1="5551.08" x2="12436.1" y2="75.0363" gradientUnits="userSpaceOnUse">
<stop stop-color="#808080" stop-opacity="0.25"/>
<stop offset="0.54" stop-color="#808080" stop-opacity="0.12"/>
<stop offset="1" stop-color="#808080" stop-opacity="0.1"/>
</linearGradient>
<linearGradient id="paint12_linear" x1="4419.19" y1="15540.3" x2="4419.19" y2="12744.8" gradientUnits="userSpaceOnUse">
<stop stop-color="#808080" stop-opacity="0.25"/>
<stop offset="0.54" stop-color="#808080" stop-opacity="0.12"/>
<stop offset="1" stop-color="#808080" stop-opacity="0.1"/>
</linearGradient>
<linearGradient id="paint13_linear" x1="123.925" y1="12324.6" x2="123.925" y2="8858.02" gradientUnits="userSpaceOnUse">
<stop stop-color="#808080" stop-opacity="0.25"/>
<stop offset="0.54" stop-color="#808080" stop-opacity="0.12"/>
<stop offset="1" stop-color="#808080" stop-opacity="0.1"/>
</linearGradient>
<linearGradient id="paint14_linear" x1="3572.57" y1="15540.3" x2="3572.57" y2="12744.8" gradientUnits="userSpaceOnUse">
<stop stop-color="#808080" stop-opacity="0.25"/>
<stop offset="0.54" stop-color="#808080" stop-opacity="0.12"/>
<stop offset="1" stop-color="#808080" stop-opacity="0.1"/>
</linearGradient>
<linearGradient id="paint15_linear" x1="66.4765" y1="12324.6" x2="66.4765" y2="8858.02" gradientUnits="userSpaceOnUse">
<stop stop-color="#808080" stop-opacity="0.25"/>
<stop offset="0.54" stop-color="#808080" stop-opacity="0.12"/>
<stop offset="1" stop-color="#808080" stop-opacity="0.1"/>
</linearGradient>
<linearGradient id="paint16_linear" x1="3611.56" y1="15675.6" x2="3611.56" y2="12842.8" gradientUnits="userSpaceOnUse">
<stop stop-color="#808080" stop-opacity="0.25"/>
<stop offset="0.54" stop-color="#808080" stop-opacity="0.12"/>
<stop offset="1" stop-color="#808080" stop-opacity="0.1"/>
</linearGradient>
<linearGradient id="paint17_linear" x1="71.6673" y1="12355.3" x2="71.6673" y2="8864.5" gradientUnits="userSpaceOnUse">
<stop stop-color="#808080" stop-opacity="0.25"/>
<stop offset="0.54" stop-color="#808080" stop-opacity="0.12"/>
<stop offset="1" stop-color="#808080" stop-opacity="0.1"/>
</linearGradient>
<linearGradient id="paint18_linear" x1="88.9334" y1="73.3662" x2="88.9334" y2="0.631588" gradientUnits="userSpaceOnUse">
<stop stop-color="#B3B3B3" stop-opacity="0.25"/>
<stop offset="0.54" stop-color="#B3B3B3" stop-opacity="0.1"/>
<stop offset="1" stop-color="#B3B3B3" stop-opacity="0.05"/>
</linearGradient>
<linearGradient id="paint19_linear" x1="71.9986" y1="26.5716" x2="71.9986" y2="23.0696" gradientUnits="userSpaceOnUse">
<stop stop-opacity="0.12"/>
<stop offset="0.55" stop-opacity="0.09"/>
<stop offset="1" stop-opacity="0.02"/>
</linearGradient>
<linearGradient id="paint20_linear" x1="17269.5" y1="4029.64" x2="17269.5" y2="3403.15" gradientUnits="userSpaceOnUse">
<stop stop-opacity="0.12"/>
<stop offset="0.55" stop-opacity="0.09"/>
<stop offset="1" stop-opacity="0.02"/>
</linearGradient>
</defs>
</svg>
